M48
;DRILL file {KiCad 5.0.0-rc2-unknown-r13164-44c1f578} date Sun Jul  1 17:53:11 2018
;FORMAT={-:-/ absolute / metric / decimal}
FMAT,2
METRIC,TZ
T1C0.400
T2C1.000
%
G90
G05
M71
T1
X98.298Y-117.348
X98.298Y-118.618
X98.298Y-119.761
X98.298Y-120.968
X100.076Y-115.316
X101.092Y-115.316
X102.108Y-115.316
X106.172Y-111.76
X106.362Y-118.237
X107.696Y-111.76
X107.696Y-118.237
X108.458Y-105.156
X108.712Y-110.744
X109.22Y-111.76
X109.22Y-118.237
X109.474Y-104.394
X110.236Y-110.744
X110.744Y-111.76
X110.744Y-118.237
X111.76Y-111.252
X111.76Y-112.776
X111.76Y-114.3
X111.76Y-115.824
X112.268Y-116.84
X112.268Y-118.237
X112.776Y-115.824
X113.284Y-114.808
X113.792Y-118.237
X115.316Y-100.33
X115.316Y-118.237
X116.332Y-107.95
X116.332Y-109.474
X116.332Y-110.998
X116.332Y-112.522
X117.094Y-100.33
X119.126Y-100.33
X133.096Y-104.
X134.366Y-103.95
X135.763Y-103.95
X137.033Y-103.95
X138.684Y-101.6
T2
X100.076Y-101.092
X100.076Y-103.632
X100.076Y-106.172
X100.076Y-108.712
X114.537Y-105.
X114.537Y-108.75
X114.537Y-112.5
X114.537Y-116.25
X128.287Y-105.
X128.287Y-108.75
X128.287Y-112.5
X128.287Y-116.25
X140.208Y-106.172
X140.208Y-108.712
X140.208Y-111.252
X140.208Y-113.792
T0
M30
