G04 #@! TF.GenerationSoftware,KiCad,Pcbnew,5.0.0-rc2-unknown-r13164-44c1f578*
G04 #@! TF.CreationDate,2018-07-03T21:21:12+03:00*
G04 #@! TF.ProjectId,nixie-ps,6E697869652D70732E6B696361645F70,rev?*
G04 #@! TF.SameCoordinates,Original*
G04 #@! TF.FileFunction,Copper,L1,Top,Signal*
G04 #@! TF.FilePolarity,Positive*
%FSLAX46Y46*%
G04 Gerber Fmt 4.6, Leading zero omitted, Abs format (unit mm)*
G04 Created by KiCad (PCBNEW 5.0.0-rc2-unknown-r13164-44c1f578) date Tue Jul  3 21:21:12 2018*
%MOMM*%
%LPD*%
G01*
G04 APERTURE LIST*
G04 #@! TA.AperFunction,SMDPad,CuDef*
%ADD10R,1.600000X3.500000*%
G04 #@! TD*
G04 #@! TA.AperFunction,ComponentPad*
%ADD11C,2.000000*%
G04 #@! TD*
G04 #@! TA.AperFunction,ComponentPad*
%ADD12R,2.000000X2.000000*%
G04 #@! TD*
G04 #@! TA.AperFunction,SMDPad,CuDef*
%ADD13R,3.500000X1.400000*%
G04 #@! TD*
G04 #@! TA.AperFunction,SMDPad,CuDef*
%ADD14R,1.250000X1.250000*%
G04 #@! TD*
G04 #@! TA.AperFunction,SMDPad,CuDef*
%ADD15R,2.300000X2.500000*%
G04 #@! TD*
G04 #@! TA.AperFunction,SMDPad,CuDef*
%ADD16R,1.450000X1.150000*%
G04 #@! TD*
G04 #@! TA.AperFunction,SMDPad,CuDef*
%ADD17R,0.900000X1.100000*%
G04 #@! TD*
G04 #@! TA.AperFunction,ComponentPad*
%ADD18R,1.700000X1.700000*%
G04 #@! TD*
G04 #@! TA.AperFunction,ComponentPad*
%ADD19O,1.700000X1.700000*%
G04 #@! TD*
G04 #@! TA.AperFunction,ViaPad*
%ADD20C,0.800000*%
G04 #@! TD*
G04 #@! TA.AperFunction,Conductor*
%ADD21C,1.000000*%
G04 #@! TD*
G04 #@! TA.AperFunction,Conductor*
%ADD22C,1.300000*%
G04 #@! TD*
G04 #@! TA.AperFunction,Conductor*
%ADD23C,0.700000*%
G04 #@! TD*
G04 #@! TA.AperFunction,Conductor*
%ADD24C,0.300000*%
G04 #@! TD*
G04 #@! TA.AperFunction,Conductor*
%ADD25C,0.254000*%
G04 #@! TD*
G04 APERTURE END LIST*
D10*
G04 #@! TO.P,C1,1*
G04 #@! TO.N,/VIN*
X107442000Y-101848000D03*
G04 #@! TO.P,C1,2*
G04 #@! TO.N,GND*
X107442000Y-107448000D03*
G04 #@! TD*
D11*
G04 #@! TO.P,T1,8*
G04 #@! TO.N,Net-(D1-Pad2)*
X128287000Y-105000000D03*
G04 #@! TO.P,T1,7*
G04 #@! TO.N,Net-(T1-Pad7)*
X128287000Y-108750000D03*
G04 #@! TO.P,T1,6*
G04 #@! TO.N,Net-(T1-Pad6)*
X128287000Y-112500000D03*
G04 #@! TO.P,T1,5*
G04 #@! TO.N,GND*
X128287000Y-116250000D03*
G04 #@! TO.P,T1,4*
G04 #@! TO.N,Net-(D2-Pad1)*
X114537000Y-116250000D03*
G04 #@! TO.P,T1,3*
G04 #@! TO.N,Net-(T1-Pad3)*
X114537000Y-112500000D03*
G04 #@! TO.P,T1,2*
G04 #@! TO.N,Net-(T1-Pad2)*
X114537000Y-108750000D03*
D12*
G04 #@! TO.P,T1,1*
G04 #@! TO.N,/VIN*
X114537000Y-105000000D03*
G04 #@! TD*
D13*
G04 #@! TO.P,C2,1*
G04 #@! TO.N,/VOUT*
X135636000Y-111288000D03*
G04 #@! TO.P,C2,2*
G04 #@! TO.N,GND*
X135636000Y-107188000D03*
G04 #@! TD*
D14*
G04 #@! TO.P,D1,1*
G04 #@! TO.N,/VOUT*
X131572000Y-111203000D03*
G04 #@! TO.P,D1,2*
G04 #@! TO.N,Net-(D1-Pad2)*
X131572000Y-108253000D03*
G04 #@! TD*
D15*
G04 #@! TO.P,D2,1*
G04 #@! TO.N,Net-(D2-Pad1)*
X101092000Y-117094000D03*
G04 #@! TO.P,D2,2*
G04 #@! TO.N,/ISEN*
X101092000Y-112294000D03*
G04 #@! TD*
D16*
G04 #@! TO.P,R1,2*
G04 #@! TO.N,/FB*
X140208000Y-100562000D03*
G04 #@! TO.P,R1,1*
G04 #@! TO.N,/VOUT*
X140208000Y-102362000D03*
G04 #@! TD*
G04 #@! TO.P,R2,1*
G04 #@! TO.N,/FB*
X137160000Y-100562000D03*
G04 #@! TO.P,R2,2*
G04 #@! TO.N,Net-(R2-Pad2)*
X137160000Y-102362000D03*
G04 #@! TD*
D17*
G04 #@! TO.P,RV1,1*
G04 #@! TO.N,Net-(R2-Pad2)*
X134874000Y-102450000D03*
G04 #@! TO.P,RV1,2*
G04 #@! TO.N,GND*
X131974000Y-101600000D03*
G04 #@! TO.P,RV1,3*
X134874000Y-100750000D03*
G04 #@! TD*
D18*
G04 #@! TO.P,J1,1*
G04 #@! TO.N,/VIN*
X100076000Y-101092000D03*
D19*
G04 #@! TO.P,J1,2*
X100076000Y-103632000D03*
G04 #@! TO.P,J1,3*
G04 #@! TO.N,GND*
X100076000Y-106172000D03*
G04 #@! TO.P,J1,4*
X100076000Y-108712000D03*
G04 #@! TD*
G04 #@! TO.P,J2,4*
G04 #@! TO.N,GND*
X140208000Y-115570000D03*
G04 #@! TO.P,J2,3*
X140208000Y-113030000D03*
G04 #@! TO.P,J2,2*
G04 #@! TO.N,/VOUT*
X140208000Y-110490000D03*
D18*
G04 #@! TO.P,J2,1*
X140208000Y-107950000D03*
G04 #@! TD*
D20*
G04 #@! TO.N,GND*
X134620000Y-105664000D03*
X135636000Y-105664000D03*
X136652000Y-105664000D03*
X133604000Y-105664000D03*
X137668000Y-105664000D03*
X133124000Y-102717600D03*
X105156000Y-105664000D03*
X109982000Y-105664000D03*
G04 #@! TO.N,Net-(D2-Pad1)*
X105664000Y-113284000D03*
X105664000Y-114427000D03*
X105664000Y-115570000D03*
X105664000Y-116713000D03*
X105664000Y-117856000D03*
X105664000Y-118999000D03*
X106934000Y-118999000D03*
X108077000Y-118999000D03*
X109220000Y-118999000D03*
X110363000Y-118999000D03*
X111633000Y-118999000D03*
X111633000Y-113284000D03*
X111633000Y-114427000D03*
X111633000Y-115570000D03*
X111633000Y-116713000D03*
X111633000Y-117856000D03*
G04 #@! TO.N,/FB*
X138684000Y-101498400D03*
G04 #@! TO.N,/ISEN*
X103124000Y-110998000D03*
X104140000Y-110998000D03*
X105156000Y-110998000D03*
G04 #@! TD*
D21*
G04 #@! TO.N,/VIN*
X107442000Y-101848000D02*
X113684400Y-101848000D01*
X114537000Y-102700600D02*
X114537000Y-105000000D01*
X113684400Y-101848000D02*
X114537000Y-102700600D01*
X104388000Y-101848000D02*
X107442000Y-101848000D01*
X100463000Y-101848000D02*
X107442000Y-101848000D01*
X100076000Y-102235000D02*
X100463000Y-101848000D01*
X100076000Y-102235000D02*
X100076000Y-101092000D01*
X100076000Y-103632000D02*
X100076000Y-102235000D01*
D22*
G04 #@! TO.N,GND*
X135636000Y-107188000D02*
X135636000Y-105664000D01*
D21*
X137668000Y-105664000D02*
X133604000Y-105664000D01*
D23*
X133124000Y-101600000D02*
X133124000Y-101600000D01*
X131974000Y-101600000D02*
X133124000Y-101600000D01*
X134860400Y-100736400D02*
X134874000Y-100750000D01*
X133987600Y-100736400D02*
X134860400Y-100736400D01*
X133124000Y-101600000D02*
X133987600Y-100736400D01*
X133124000Y-102717600D02*
X133124000Y-101600000D01*
D24*
G04 #@! TO.N,/VOUT*
X135467000Y-111457000D02*
X135636000Y-111288000D01*
D21*
X131572000Y-111252000D02*
X135467000Y-111252000D01*
X139410000Y-111288000D02*
X140208000Y-110490000D01*
X135636000Y-111288000D02*
X139410000Y-111288000D01*
X140208000Y-102362000D02*
X140208000Y-107950000D01*
X140208000Y-104140000D02*
X140208000Y-102362000D01*
X140208000Y-110490000D02*
X140208000Y-107950000D01*
D23*
G04 #@! TO.N,/FB*
X140208000Y-100562000D02*
X138684000Y-100562000D01*
X138684000Y-100562000D02*
X137160000Y-100562000D01*
X138684000Y-100562000D02*
X138684000Y-100562000D01*
X138684000Y-101498400D02*
X138684000Y-100562000D01*
D24*
G04 #@! TO.N,Net-(R2-Pad2)*
X135050000Y-102362000D02*
X134874000Y-102538000D01*
D23*
X137414000Y-102362000D02*
X135050000Y-102362000D01*
D21*
G04 #@! TO.N,Net-(D1-Pad2)*
X128287000Y-105000000D02*
X130146000Y-105000000D01*
X131572000Y-106426000D02*
X131572000Y-108253000D01*
X130146000Y-105000000D02*
X131572000Y-106426000D01*
G04 #@! TD*
D25*
G04 #@! TO.N,Net-(D2-Pad1)*
G36*
X112649000Y-114300000D02*
X112658667Y-114348601D01*
X112686197Y-114389803D01*
X112727399Y-114417333D01*
X112776000Y-114427000D01*
X115951000Y-114427000D01*
X115951000Y-119507000D01*
X99441000Y-119507000D01*
X99441000Y-117316250D01*
X99561000Y-117316250D01*
X99561000Y-118419786D01*
X99619004Y-118559820D01*
X99726181Y-118666996D01*
X99866215Y-118725000D01*
X100869750Y-118725000D01*
X100965000Y-118629750D01*
X100965000Y-117221000D01*
X101219000Y-117221000D01*
X101219000Y-118629750D01*
X101314250Y-118725000D01*
X102317785Y-118725000D01*
X102457819Y-118666996D01*
X102564996Y-118559820D01*
X102623000Y-118419786D01*
X102623000Y-117316250D01*
X102570492Y-117263742D01*
X113702863Y-117263742D01*
X113815485Y-117459146D01*
X114333126Y-117643217D01*
X114881806Y-117615184D01*
X115258515Y-117459146D01*
X115371137Y-117263742D01*
X114537000Y-116429605D01*
X113702863Y-117263742D01*
X102570492Y-117263742D01*
X102527750Y-117221000D01*
X101219000Y-117221000D01*
X100965000Y-117221000D01*
X99656250Y-117221000D01*
X99561000Y-117316250D01*
X99441000Y-117316250D01*
X99441000Y-115768214D01*
X99561000Y-115768214D01*
X99561000Y-116871750D01*
X99656250Y-116967000D01*
X100965000Y-116967000D01*
X100965000Y-115558250D01*
X101219000Y-115558250D01*
X101219000Y-116967000D01*
X102527750Y-116967000D01*
X102623000Y-116871750D01*
X102623000Y-116046126D01*
X113143783Y-116046126D01*
X113171816Y-116594806D01*
X113327854Y-116971515D01*
X113523258Y-117084137D01*
X114357395Y-116250000D01*
X114716605Y-116250000D01*
X115550742Y-117084137D01*
X115746146Y-116971515D01*
X115930217Y-116453874D01*
X115902184Y-115905194D01*
X115746146Y-115528485D01*
X115550742Y-115415863D01*
X114716605Y-116250000D01*
X114357395Y-116250000D01*
X113523258Y-115415863D01*
X113327854Y-115528485D01*
X113143783Y-116046126D01*
X102623000Y-116046126D01*
X102623000Y-115768214D01*
X102564996Y-115628180D01*
X102457819Y-115521004D01*
X102317785Y-115463000D01*
X101314250Y-115463000D01*
X101219000Y-115558250D01*
X100965000Y-115558250D01*
X100869750Y-115463000D01*
X99866215Y-115463000D01*
X99726181Y-115521004D01*
X99619004Y-115628180D01*
X99561000Y-115768214D01*
X99441000Y-115768214D01*
X99441000Y-115443000D01*
X105156000Y-115443000D01*
X105204601Y-115433333D01*
X105245803Y-115405803D01*
X105273333Y-115364601D01*
X105283000Y-115316000D01*
X105283000Y-115236258D01*
X113702863Y-115236258D01*
X114537000Y-116070395D01*
X115371137Y-115236258D01*
X115258515Y-115040854D01*
X114740874Y-114856783D01*
X114192194Y-114884816D01*
X113815485Y-115040854D01*
X113702863Y-115236258D01*
X105283000Y-115236258D01*
X105283000Y-112649000D01*
X112649000Y-112649000D01*
X112649000Y-114300000D01*
X112649000Y-114300000D01*
G37*
X112649000Y-114300000D02*
X112658667Y-114348601D01*
X112686197Y-114389803D01*
X112727399Y-114417333D01*
X112776000Y-114427000D01*
X115951000Y-114427000D01*
X115951000Y-119507000D01*
X99441000Y-119507000D01*
X99441000Y-117316250D01*
X99561000Y-117316250D01*
X99561000Y-118419786D01*
X99619004Y-118559820D01*
X99726181Y-118666996D01*
X99866215Y-118725000D01*
X100869750Y-118725000D01*
X100965000Y-118629750D01*
X100965000Y-117221000D01*
X101219000Y-117221000D01*
X101219000Y-118629750D01*
X101314250Y-118725000D01*
X102317785Y-118725000D01*
X102457819Y-118666996D01*
X102564996Y-118559820D01*
X102623000Y-118419786D01*
X102623000Y-117316250D01*
X102570492Y-117263742D01*
X113702863Y-117263742D01*
X113815485Y-117459146D01*
X114333126Y-117643217D01*
X114881806Y-117615184D01*
X115258515Y-117459146D01*
X115371137Y-117263742D01*
X114537000Y-116429605D01*
X113702863Y-117263742D01*
X102570492Y-117263742D01*
X102527750Y-117221000D01*
X101219000Y-117221000D01*
X100965000Y-117221000D01*
X99656250Y-117221000D01*
X99561000Y-117316250D01*
X99441000Y-117316250D01*
X99441000Y-115768214D01*
X99561000Y-115768214D01*
X99561000Y-116871750D01*
X99656250Y-116967000D01*
X100965000Y-116967000D01*
X100965000Y-115558250D01*
X101219000Y-115558250D01*
X101219000Y-116967000D01*
X102527750Y-116967000D01*
X102623000Y-116871750D01*
X102623000Y-116046126D01*
X113143783Y-116046126D01*
X113171816Y-116594806D01*
X113327854Y-116971515D01*
X113523258Y-117084137D01*
X114357395Y-116250000D01*
X114716605Y-116250000D01*
X115550742Y-117084137D01*
X115746146Y-116971515D01*
X115930217Y-116453874D01*
X115902184Y-115905194D01*
X115746146Y-115528485D01*
X115550742Y-115415863D01*
X114716605Y-116250000D01*
X114357395Y-116250000D01*
X113523258Y-115415863D01*
X113327854Y-115528485D01*
X113143783Y-116046126D01*
X102623000Y-116046126D01*
X102623000Y-115768214D01*
X102564996Y-115628180D01*
X102457819Y-115521004D01*
X102317785Y-115463000D01*
X101314250Y-115463000D01*
X101219000Y-115558250D01*
X100965000Y-115558250D01*
X100869750Y-115463000D01*
X99866215Y-115463000D01*
X99726181Y-115521004D01*
X99619004Y-115628180D01*
X99561000Y-115768214D01*
X99441000Y-115768214D01*
X99441000Y-115443000D01*
X105156000Y-115443000D01*
X105204601Y-115433333D01*
X105245803Y-115405803D01*
X105273333Y-115364601D01*
X105283000Y-115316000D01*
X105283000Y-115236258D01*
X113702863Y-115236258D01*
X114537000Y-116070395D01*
X115371137Y-115236258D01*
X115258515Y-115040854D01*
X114740874Y-114856783D01*
X114192194Y-114884816D01*
X113815485Y-115040854D01*
X113702863Y-115236258D01*
X105283000Y-115236258D01*
X105283000Y-112649000D01*
X112649000Y-112649000D01*
X112649000Y-114300000D01*
G04 #@! TO.N,GND*
G36*
X98804355Y-105405076D02*
X98634524Y-105815110D01*
X98755845Y-106045000D01*
X99949000Y-106045000D01*
X99949000Y-106025000D01*
X100203000Y-106025000D01*
X100203000Y-106045000D01*
X101396155Y-106045000D01*
X101517476Y-105815110D01*
X101416655Y-105571691D01*
X106007000Y-105571691D01*
X106007000Y-107162250D01*
X106165750Y-107321000D01*
X107315000Y-107321000D01*
X107315000Y-105221750D01*
X107569000Y-105221750D01*
X107569000Y-107321000D01*
X108718250Y-107321000D01*
X108877000Y-107162250D01*
X108877000Y-105571691D01*
X108780327Y-105338302D01*
X108601699Y-105159673D01*
X108368310Y-105063000D01*
X107727750Y-105063000D01*
X107569000Y-105221750D01*
X107315000Y-105221750D01*
X107156250Y-105063000D01*
X106515690Y-105063000D01*
X106282301Y-105159673D01*
X106103673Y-105338302D01*
X106007000Y-105571691D01*
X101416655Y-105571691D01*
X101347645Y-105405076D01*
X101004914Y-105029000D01*
X112649000Y-105029000D01*
X112649000Y-109855000D01*
X101004914Y-109855000D01*
X101347645Y-109478924D01*
X101517476Y-109068890D01*
X101396155Y-108839000D01*
X100203000Y-108839000D01*
X100203000Y-108859000D01*
X99949000Y-108859000D01*
X99949000Y-108839000D01*
X98755845Y-108839000D01*
X98634524Y-109068890D01*
X98804355Y-109478924D01*
X99147086Y-109855000D01*
X98171000Y-109855000D01*
X98171000Y-106528890D01*
X98634524Y-106528890D01*
X98804355Y-106938924D01*
X99194642Y-107367183D01*
X99353954Y-107442000D01*
X99194642Y-107516817D01*
X98804355Y-107945076D01*
X98634524Y-108355110D01*
X98755845Y-108585000D01*
X99949000Y-108585000D01*
X99949000Y-106299000D01*
X100203000Y-106299000D01*
X100203000Y-108585000D01*
X101396155Y-108585000D01*
X101517476Y-108355110D01*
X101347645Y-107945076D01*
X101155057Y-107733750D01*
X106007000Y-107733750D01*
X106007000Y-109324309D01*
X106103673Y-109557698D01*
X106282301Y-109736327D01*
X106515690Y-109833000D01*
X107156250Y-109833000D01*
X107315000Y-109674250D01*
X107315000Y-107575000D01*
X107569000Y-107575000D01*
X107569000Y-109674250D01*
X107727750Y-109833000D01*
X108368310Y-109833000D01*
X108601699Y-109736327D01*
X108780327Y-109557698D01*
X108877000Y-109324309D01*
X108877000Y-107733750D01*
X108718250Y-107575000D01*
X107569000Y-107575000D01*
X107315000Y-107575000D01*
X106165750Y-107575000D01*
X106007000Y-107733750D01*
X101155057Y-107733750D01*
X100957358Y-107516817D01*
X100798046Y-107442000D01*
X100957358Y-107367183D01*
X101347645Y-106938924D01*
X101517476Y-106528890D01*
X101396155Y-106299000D01*
X100203000Y-106299000D01*
X99949000Y-106299000D01*
X98755845Y-106299000D01*
X98634524Y-106528890D01*
X98171000Y-106528890D01*
X98171000Y-105029000D01*
X99147086Y-105029000D01*
X98804355Y-105405076D01*
X98804355Y-105405076D01*
G37*
X98804355Y-105405076D02*
X98634524Y-105815110D01*
X98755845Y-106045000D01*
X99949000Y-106045000D01*
X99949000Y-106025000D01*
X100203000Y-106025000D01*
X100203000Y-106045000D01*
X101396155Y-106045000D01*
X101517476Y-105815110D01*
X101416655Y-105571691D01*
X106007000Y-105571691D01*
X106007000Y-107162250D01*
X106165750Y-107321000D01*
X107315000Y-107321000D01*
X107315000Y-105221750D01*
X107569000Y-105221750D01*
X107569000Y-107321000D01*
X108718250Y-107321000D01*
X108877000Y-107162250D01*
X108877000Y-105571691D01*
X108780327Y-105338302D01*
X108601699Y-105159673D01*
X108368310Y-105063000D01*
X107727750Y-105063000D01*
X107569000Y-105221750D01*
X107315000Y-105221750D01*
X107156250Y-105063000D01*
X106515690Y-105063000D01*
X106282301Y-105159673D01*
X106103673Y-105338302D01*
X106007000Y-105571691D01*
X101416655Y-105571691D01*
X101347645Y-105405076D01*
X101004914Y-105029000D01*
X112649000Y-105029000D01*
X112649000Y-109855000D01*
X101004914Y-109855000D01*
X101347645Y-109478924D01*
X101517476Y-109068890D01*
X101396155Y-108839000D01*
X100203000Y-108839000D01*
X100203000Y-108859000D01*
X99949000Y-108859000D01*
X99949000Y-108839000D01*
X98755845Y-108839000D01*
X98634524Y-109068890D01*
X98804355Y-109478924D01*
X99147086Y-109855000D01*
X98171000Y-109855000D01*
X98171000Y-106528890D01*
X98634524Y-106528890D01*
X98804355Y-106938924D01*
X99194642Y-107367183D01*
X99353954Y-107442000D01*
X99194642Y-107516817D01*
X98804355Y-107945076D01*
X98634524Y-108355110D01*
X98755845Y-108585000D01*
X99949000Y-108585000D01*
X99949000Y-106299000D01*
X100203000Y-106299000D01*
X100203000Y-108585000D01*
X101396155Y-108585000D01*
X101517476Y-108355110D01*
X101347645Y-107945076D01*
X101155057Y-107733750D01*
X106007000Y-107733750D01*
X106007000Y-109324309D01*
X106103673Y-109557698D01*
X106282301Y-109736327D01*
X106515690Y-109833000D01*
X107156250Y-109833000D01*
X107315000Y-109674250D01*
X107315000Y-107575000D01*
X107569000Y-107575000D01*
X107569000Y-109674250D01*
X107727750Y-109833000D01*
X108368310Y-109833000D01*
X108601699Y-109736327D01*
X108780327Y-109557698D01*
X108877000Y-109324309D01*
X108877000Y-107733750D01*
X108718250Y-107575000D01*
X107569000Y-107575000D01*
X107315000Y-107575000D01*
X106165750Y-107575000D01*
X106007000Y-107733750D01*
X101155057Y-107733750D01*
X100957358Y-107516817D01*
X100798046Y-107442000D01*
X100957358Y-107367183D01*
X101347645Y-106938924D01*
X101517476Y-106528890D01*
X101396155Y-106299000D01*
X100203000Y-106299000D01*
X99949000Y-106299000D01*
X98755845Y-106299000D01*
X98634524Y-106528890D01*
X98171000Y-106528890D01*
X98171000Y-105029000D01*
X99147086Y-105029000D01*
X98804355Y-105405076D01*
G04 #@! TO.N,/ISEN*
G36*
X105791000Y-111887000D02*
X104648000Y-111887000D01*
X104599399Y-111896667D01*
X104558197Y-111924197D01*
X104530667Y-111965399D01*
X104521000Y-112014000D01*
X104521000Y-114681000D01*
X99441000Y-114681000D01*
X99441000Y-112516250D01*
X99561000Y-112516250D01*
X99561000Y-113619786D01*
X99619004Y-113759820D01*
X99726181Y-113866996D01*
X99866215Y-113925000D01*
X100869750Y-113925000D01*
X100965000Y-113829750D01*
X100965000Y-112421000D01*
X101219000Y-112421000D01*
X101219000Y-113829750D01*
X101314250Y-113925000D01*
X102317785Y-113925000D01*
X102457819Y-113866996D01*
X102564996Y-113759820D01*
X102623000Y-113619786D01*
X102623000Y-112516250D01*
X102527750Y-112421000D01*
X101219000Y-112421000D01*
X100965000Y-112421000D01*
X99656250Y-112421000D01*
X99561000Y-112516250D01*
X99441000Y-112516250D01*
X99441000Y-110968214D01*
X99561000Y-110968214D01*
X99561000Y-112071750D01*
X99656250Y-112167000D01*
X100965000Y-112167000D01*
X100965000Y-110758250D01*
X101219000Y-110758250D01*
X101219000Y-112167000D01*
X102527750Y-112167000D01*
X102623000Y-112071750D01*
X102623000Y-110968214D01*
X102564996Y-110828180D01*
X102457819Y-110721004D01*
X102317785Y-110663000D01*
X101314250Y-110663000D01*
X101219000Y-110758250D01*
X100965000Y-110758250D01*
X100869750Y-110663000D01*
X99866215Y-110663000D01*
X99726181Y-110721004D01*
X99619004Y-110828180D01*
X99561000Y-110968214D01*
X99441000Y-110968214D01*
X99441000Y-110617000D01*
X105791000Y-110617000D01*
X105791000Y-111887000D01*
X105791000Y-111887000D01*
G37*
X105791000Y-111887000D02*
X104648000Y-111887000D01*
X104599399Y-111896667D01*
X104558197Y-111924197D01*
X104530667Y-111965399D01*
X104521000Y-112014000D01*
X104521000Y-114681000D01*
X99441000Y-114681000D01*
X99441000Y-112516250D01*
X99561000Y-112516250D01*
X99561000Y-113619786D01*
X99619004Y-113759820D01*
X99726181Y-113866996D01*
X99866215Y-113925000D01*
X100869750Y-113925000D01*
X100965000Y-113829750D01*
X100965000Y-112421000D01*
X101219000Y-112421000D01*
X101219000Y-113829750D01*
X101314250Y-113925000D01*
X102317785Y-113925000D01*
X102457819Y-113866996D01*
X102564996Y-113759820D01*
X102623000Y-113619786D01*
X102623000Y-112516250D01*
X102527750Y-112421000D01*
X101219000Y-112421000D01*
X100965000Y-112421000D01*
X99656250Y-112421000D01*
X99561000Y-112516250D01*
X99441000Y-112516250D01*
X99441000Y-110968214D01*
X99561000Y-110968214D01*
X99561000Y-112071750D01*
X99656250Y-112167000D01*
X100965000Y-112167000D01*
X100965000Y-110758250D01*
X101219000Y-110758250D01*
X101219000Y-112167000D01*
X102527750Y-112167000D01*
X102623000Y-112071750D01*
X102623000Y-110968214D01*
X102564996Y-110828180D01*
X102457819Y-110721004D01*
X102317785Y-110663000D01*
X101314250Y-110663000D01*
X101219000Y-110758250D01*
X100965000Y-110758250D01*
X100869750Y-110663000D01*
X99866215Y-110663000D01*
X99726181Y-110721004D01*
X99619004Y-110828180D01*
X99561000Y-110968214D01*
X99441000Y-110968214D01*
X99441000Y-110617000D01*
X105791000Y-110617000D01*
X105791000Y-111887000D01*
G04 #@! TD*
M02*
