G04 #@! TF.GenerationSoftware,KiCad,Pcbnew,5.0.0-rc2-unknown-r13164-44c1f578*
G04 #@! TF.CreationDate,2018-07-01T17:53:07+03:00*
G04 #@! TF.ProjectId,nixie-ps,6E697869652D70732E6B696361645F70,rev?*
G04 #@! TF.SameCoordinates,Original*
G04 #@! TF.FileFunction,Soldermask,Bot*
G04 #@! TF.FilePolarity,Negative*
%FSLAX46Y46*%
G04 Gerber Fmt 4.6, Leading zero omitted, Abs format (unit mm)*
G04 Created by KiCad (PCBNEW 5.0.0-rc2-unknown-r13164-44c1f578) date Sun Jul  1 17:53:07 2018*
%MOMM*%
%LPD*%
G01*
G04 APERTURE LIST*
%ADD10R,1.650000X0.650000*%
%ADD11R,1.350000X1.650000*%
%ADD12C,2.200000*%
%ADD13R,2.200000X2.200000*%
%ADD14R,1.550000X0.800000*%
%ADD15R,3.745000X4.610000*%
%ADD16R,1.650000X1.350000*%
%ADD17R,1.900000X1.900000*%
%ADD18O,1.900000X1.900000*%
G04 APERTURE END LIST*
D10*
G04 #@! TO.C,U1*
X105128000Y-107584000D03*
X105128000Y-106934000D03*
X105128000Y-106284000D03*
X105128000Y-105634000D03*
X109928000Y-105634000D03*
X109928000Y-106284000D03*
X109928000Y-106934000D03*
X109928000Y-107584000D03*
G04 #@! TD*
D11*
G04 #@! TO.C,R5*
X102108000Y-120396000D03*
X100308000Y-120396000D03*
G04 #@! TD*
D12*
G04 #@! TO.C,T1*
X128287000Y-105000000D03*
X128287000Y-108750000D03*
X128287000Y-112500000D03*
X128287000Y-116250000D03*
X114537000Y-116250000D03*
X114537000Y-112500000D03*
X114537000Y-108750000D03*
D13*
X114537000Y-105000000D03*
G04 #@! TD*
D14*
G04 #@! TO.C,Q1*
X110048000Y-116713000D03*
X110096000Y-115443000D03*
X110096000Y-114173000D03*
X110143000Y-112903000D03*
D15*
X107696000Y-114808000D03*
D14*
X104028000Y-112903000D03*
X104028000Y-114173000D03*
X104028000Y-115443000D03*
X104028000Y-116713000D03*
G04 #@! TD*
D16*
G04 #@! TO.C,C3*
X103632000Y-103908000D03*
X103632000Y-102108000D03*
G04 #@! TD*
D11*
G04 #@! TO.C,C4*
X105156000Y-120396000D03*
X106956000Y-120396000D03*
G04 #@! TD*
D16*
G04 #@! TO.C,R3*
X105918000Y-103908000D03*
X105918000Y-102108000D03*
G04 #@! TD*
G04 #@! TO.C,R4*
X111252000Y-102108000D03*
X111252000Y-103908000D03*
G04 #@! TD*
D17*
G04 #@! TO.C,J1*
X100076000Y-101092000D03*
D18*
X100076000Y-103632000D03*
X100076000Y-106172000D03*
X100076000Y-108712000D03*
G04 #@! TD*
G04 #@! TO.C,J2*
X140208000Y-113792000D03*
X140208000Y-111252000D03*
X140208000Y-108712000D03*
D17*
X140208000Y-106172000D03*
G04 #@! TD*
M02*
