M48
;DRILL file {KiCad 5.0.0-rc2-unknown-r13164-44c1f578} date Tue Jul  3 21:26:05 2018
;FORMAT={-:-/ absolute / metric / decimal}
FMAT,2
METRIC,TZ
T1C0.400
T2C1.000
%
G90
G05
M71
T1
X103.124Y-110.998
X104.14Y-110.998
X105.156Y-105.664
X105.156Y-110.998
X105.664Y-113.284
X105.664Y-114.427
X105.664Y-115.57
X105.664Y-116.713
X105.664Y-117.856
X105.664Y-118.999
X106.934Y-118.999
X108.077Y-118.999
X109.22Y-118.999
X109.982Y-105.664
X110.363Y-118.999
X111.633Y-113.284
X111.633Y-114.427
X111.633Y-115.57
X111.633Y-116.713
X111.633Y-117.856
X111.633Y-118.999
X133.124Y-102.718
X133.604Y-105.664
X134.62Y-105.664
X135.636Y-105.664
X136.652Y-105.664
X137.668Y-105.664
X138.684Y-101.498
T2
X100.076Y-101.092
X100.076Y-103.632
X100.076Y-106.172
X100.076Y-108.712
X114.537Y-105.
X114.537Y-108.75
X114.537Y-112.5
X114.537Y-116.25
X128.287Y-105.
X128.287Y-108.75
X128.287Y-112.5
X128.287Y-116.25
X140.208Y-107.95
X140.208Y-110.49
X140.208Y-113.03
X140.208Y-115.57
T0
M30
