G04 #@! TF.GenerationSoftware,KiCad,Pcbnew,5.0.0-rc2-unknown-r13164-44c1f578*
G04 #@! TF.CreationDate,2018-07-03T21:26:02+03:00*
G04 #@! TF.ProjectId,nixie-ps,6E697869652D70732E6B696361645F70,rev?*
G04 #@! TF.SameCoordinates,Original*
G04 #@! TF.FileFunction,Legend,Top*
G04 #@! TF.FilePolarity,Positive*
%FSLAX46Y46*%
G04 Gerber Fmt 4.6, Leading zero omitted, Abs format (unit mm)*
G04 Created by KiCad (PCBNEW 5.0.0-rc2-unknown-r13164-44c1f578) date Tue Jul  3 21:26:02 2018*
%MOMM*%
%LPD*%
G01*
G04 APERTURE LIST*
%ADD10C,0.200000*%
%ADD11C,0.150000*%
%ADD12C,0.381000*%
G04 APERTURE END LIST*
D10*
X115251142Y-119738857D02*
X114679714Y-119738857D01*
X114622571Y-120310285D01*
X114679714Y-120253142D01*
X114794000Y-120196000D01*
X115079714Y-120196000D01*
X115194000Y-120253142D01*
X115251142Y-120310285D01*
X115308285Y-120424571D01*
X115308285Y-120710285D01*
X115251142Y-120824571D01*
X115194000Y-120881714D01*
X115079714Y-120938857D01*
X114794000Y-120938857D01*
X114679714Y-120881714D01*
X114622571Y-120824571D01*
X115822571Y-120481714D02*
X116736857Y-120481714D01*
X117936857Y-120938857D02*
X117251142Y-120938857D01*
X117594000Y-120938857D02*
X117594000Y-119738857D01*
X117479714Y-119910285D01*
X117365428Y-120024571D01*
X117251142Y-120081714D01*
X118394000Y-119853142D02*
X118451142Y-119796000D01*
X118565428Y-119738857D01*
X118851142Y-119738857D01*
X118965428Y-119796000D01*
X119022571Y-119853142D01*
X119079714Y-119967428D01*
X119079714Y-120081714D01*
X119022571Y-120253142D01*
X118336857Y-120938857D01*
X119079714Y-120938857D01*
X119422571Y-119738857D02*
X119822571Y-120938857D01*
X120222571Y-119738857D01*
X121365428Y-120138857D02*
X121822571Y-120138857D01*
X121536857Y-119738857D02*
X121536857Y-120767428D01*
X121594000Y-120881714D01*
X121708285Y-120938857D01*
X121822571Y-120938857D01*
X122394000Y-120938857D02*
X122279714Y-120881714D01*
X122222571Y-120824571D01*
X122165428Y-120710285D01*
X122165428Y-120367428D01*
X122222571Y-120253142D01*
X122279714Y-120196000D01*
X122394000Y-120138857D01*
X122565428Y-120138857D01*
X122679714Y-120196000D01*
X122736857Y-120253142D01*
X122794000Y-120367428D01*
X122794000Y-120710285D01*
X122736857Y-120824571D01*
X122679714Y-120881714D01*
X122565428Y-120938857D01*
X122394000Y-120938857D01*
X124851142Y-120938857D02*
X124165428Y-120938857D01*
X124508285Y-120938857D02*
X124508285Y-119738857D01*
X124394000Y-119910285D01*
X124279714Y-120024571D01*
X124165428Y-120081714D01*
X125536857Y-120253142D02*
X125422571Y-120196000D01*
X125365428Y-120138857D01*
X125308285Y-120024571D01*
X125308285Y-119967428D01*
X125365428Y-119853142D01*
X125422571Y-119796000D01*
X125536857Y-119738857D01*
X125765428Y-119738857D01*
X125879714Y-119796000D01*
X125936857Y-119853142D01*
X125994000Y-119967428D01*
X125994000Y-120024571D01*
X125936857Y-120138857D01*
X125879714Y-120196000D01*
X125765428Y-120253142D01*
X125536857Y-120253142D01*
X125422571Y-120310285D01*
X125365428Y-120367428D01*
X125308285Y-120481714D01*
X125308285Y-120710285D01*
X125365428Y-120824571D01*
X125422571Y-120881714D01*
X125536857Y-120938857D01*
X125765428Y-120938857D01*
X125879714Y-120881714D01*
X125936857Y-120824571D01*
X125994000Y-120710285D01*
X125994000Y-120481714D01*
X125936857Y-120367428D01*
X125879714Y-120310285D01*
X125765428Y-120253142D01*
X126736857Y-119738857D02*
X126851142Y-119738857D01*
X126965428Y-119796000D01*
X127022571Y-119853142D01*
X127079714Y-119967428D01*
X127136857Y-120196000D01*
X127136857Y-120481714D01*
X127079714Y-120710285D01*
X127022571Y-120824571D01*
X126965428Y-120881714D01*
X126851142Y-120938857D01*
X126736857Y-120938857D01*
X126622571Y-120881714D01*
X126565428Y-120824571D01*
X126508285Y-120710285D01*
X126451142Y-120481714D01*
X126451142Y-120196000D01*
X126508285Y-119967428D01*
X126565428Y-119853142D01*
X126622571Y-119796000D01*
X126736857Y-119738857D01*
X127479714Y-119738857D02*
X127879714Y-120938857D01*
X128279714Y-119738857D01*
D11*
X142176500Y-106680000D02*
X142176500Y-107950000D01*
X141414500Y-106680000D02*
X142176500Y-106680000D01*
X141478000Y-111760000D02*
X142176500Y-111760000D01*
X142176500Y-113538000D02*
X142176500Y-110490000D01*
X142176500Y-116840000D02*
X142176500Y-115824000D01*
X141414500Y-116840000D02*
X142176500Y-116840000D01*
X141847928Y-110277142D02*
X142447928Y-110077142D01*
X141847928Y-109877142D01*
X141847928Y-109562857D02*
X141847928Y-109448571D01*
X141876500Y-109391428D01*
X141933642Y-109334285D01*
X142047928Y-109305714D01*
X142247928Y-109305714D01*
X142362214Y-109334285D01*
X142419357Y-109391428D01*
X142447928Y-109448571D01*
X142447928Y-109562857D01*
X142419357Y-109620000D01*
X142362214Y-109677142D01*
X142247928Y-109705714D01*
X142047928Y-109705714D01*
X141933642Y-109677142D01*
X141876500Y-109620000D01*
X141847928Y-109562857D01*
X141847928Y-109048571D02*
X142333642Y-109048571D01*
X142390785Y-109020000D01*
X142419357Y-108991428D01*
X142447928Y-108934285D01*
X142447928Y-108820000D01*
X142419357Y-108762857D01*
X142390785Y-108734285D01*
X142333642Y-108705714D01*
X141847928Y-108705714D01*
X141847928Y-108505714D02*
X141847928Y-108162857D01*
X142447928Y-108334285D02*
X141847928Y-108334285D01*
X141876500Y-115011142D02*
X141847928Y-115068285D01*
X141847928Y-115154000D01*
X141876500Y-115239714D01*
X141933642Y-115296857D01*
X141990785Y-115325428D01*
X142105071Y-115354000D01*
X142190785Y-115354000D01*
X142305071Y-115325428D01*
X142362214Y-115296857D01*
X142419357Y-115239714D01*
X142447928Y-115154000D01*
X142447928Y-115096857D01*
X142419357Y-115011142D01*
X142390785Y-114982571D01*
X142190785Y-114982571D01*
X142190785Y-115096857D01*
X142447928Y-114725428D02*
X141847928Y-114725428D01*
X142447928Y-114382571D01*
X141847928Y-114382571D01*
X142447928Y-114096857D02*
X141847928Y-114096857D01*
X141847928Y-113954000D01*
X141876500Y-113868285D01*
X141933642Y-113811142D01*
X141990785Y-113782571D01*
X142105071Y-113754000D01*
X142190785Y-113754000D01*
X142305071Y-113782571D01*
X142362214Y-113811142D01*
X142419357Y-113868285D01*
X142447928Y-113954000D01*
X142447928Y-114096857D01*
X98044000Y-109982000D02*
X98806000Y-109982000D01*
X98044000Y-108712000D02*
X98044000Y-109982000D01*
X98044000Y-104902000D02*
X98044000Y-106426000D01*
X98044000Y-104902000D02*
X98806000Y-104902000D01*
X98044000Y-103632000D02*
X98044000Y-104902000D01*
X98044000Y-99822000D02*
X98806000Y-99822000D01*
X98044000Y-101600000D02*
X98044000Y-99822000D01*
X98344000Y-107238857D02*
X98372571Y-107181714D01*
X98372571Y-107096000D01*
X98344000Y-107010285D01*
X98286857Y-106953142D01*
X98229714Y-106924571D01*
X98115428Y-106896000D01*
X98029714Y-106896000D01*
X97915428Y-106924571D01*
X97858285Y-106953142D01*
X97801142Y-107010285D01*
X97772571Y-107096000D01*
X97772571Y-107153142D01*
X97801142Y-107238857D01*
X97829714Y-107267428D01*
X98029714Y-107267428D01*
X98029714Y-107153142D01*
X97772571Y-107524571D02*
X98372571Y-107524571D01*
X97772571Y-107867428D01*
X98372571Y-107867428D01*
X97772571Y-108153142D02*
X98372571Y-108153142D01*
X98372571Y-108296000D01*
X98344000Y-108381714D01*
X98286857Y-108438857D01*
X98229714Y-108467428D01*
X98115428Y-108496000D01*
X98029714Y-108496000D01*
X97915428Y-108467428D01*
X97858285Y-108438857D01*
X97801142Y-108381714D01*
X97772571Y-108296000D01*
X97772571Y-108153142D01*
X98372571Y-101958857D02*
X97772571Y-102158857D01*
X98372571Y-102358857D01*
X97772571Y-102558857D02*
X98372571Y-102558857D01*
X97772571Y-102844571D02*
X98372571Y-102844571D01*
X97772571Y-103187428D01*
X98372571Y-103187428D01*
G04 #@! TO.C,C1*
X104032000Y-108058000D02*
X106382000Y-108058000D01*
X110852000Y-108058000D02*
X108502000Y-108058000D01*
X110852000Y-102302437D02*
X110852000Y-108058000D01*
X104032000Y-102302437D02*
X104032000Y-108058000D01*
X105096437Y-101238000D02*
X106382000Y-101238000D01*
X109787563Y-101238000D02*
X108502000Y-101238000D01*
X109787563Y-101238000D02*
X110852000Y-102302437D01*
X105096437Y-101238000D02*
X104032000Y-102302437D01*
X109289500Y-100210500D02*
X109289500Y-100998000D01*
X109683250Y-100604250D02*
X108895750Y-100604250D01*
G04 #@! TO.C,T1*
X125662000Y-107625000D02*
X125912000Y-109375000D01*
X117912000Y-113625000D02*
X116912000Y-107625000D01*
X119162000Y-113625000D02*
X118162000Y-107625000D01*
X120412000Y-113625000D02*
X119412000Y-107625000D01*
X121662000Y-113625000D02*
X120662000Y-107625000D01*
X122912000Y-113625000D02*
X121912000Y-107625000D01*
X124162000Y-113625000D02*
X123162000Y-107625000D01*
X125412000Y-113625000D02*
X124412000Y-107625000D01*
X116987000Y-113475000D02*
X125837000Y-113475000D01*
X116987000Y-107775000D02*
X125837000Y-107775000D01*
G36*
X116912000Y-118625000D02*
X125912000Y-118625000D01*
X125912000Y-116875000D01*
X116912000Y-116875000D01*
X116912000Y-118625000D01*
G37*
X116912000Y-118625000D02*
X125912000Y-118625000D01*
X125912000Y-116875000D01*
X116912000Y-116875000D01*
X116912000Y-118625000D01*
G36*
X125912000Y-102625000D02*
X116912000Y-102625000D01*
X116912000Y-104375000D01*
X125912000Y-104375000D01*
X125912000Y-102625000D01*
G37*
X125912000Y-102625000D02*
X116912000Y-102625000D01*
X116912000Y-104375000D01*
X125912000Y-104375000D01*
X125912000Y-102625000D01*
X116912000Y-119125000D02*
X113162000Y-119125000D01*
X116912000Y-102125000D02*
X116912000Y-119125000D01*
X125912000Y-119125000D02*
X129662000Y-119125000D01*
X125912000Y-102125000D02*
X125912000Y-119125000D01*
X129662000Y-102125000D02*
X125912000Y-102125000D01*
X113162000Y-102125000D02*
X116912000Y-102125000D01*
X129662000Y-102125000D02*
X129662000Y-119125000D01*
X113162000Y-102125000D02*
X113162000Y-119125000D01*
G04 #@! TO.C,C2*
X133636000Y-112238000D02*
X133636000Y-106238000D01*
X133636000Y-106238000D02*
X137636000Y-106238000D01*
X137636000Y-106238000D02*
X137636000Y-112238000D01*
X137636000Y-112238000D02*
X133636000Y-112238000D01*
G04 #@! TO.C,D1*
X132472000Y-111178000D02*
X132472000Y-108278000D01*
X130672000Y-108278000D02*
X130672000Y-111178000D01*
X131572000Y-110328000D02*
X131572000Y-110128000D01*
X130972000Y-109328000D02*
X132172000Y-109328000D01*
X131572000Y-109128000D02*
X131572000Y-109328000D01*
X131572000Y-110128000D02*
X132172000Y-109328000D01*
X130972000Y-109328000D02*
X131572000Y-110128000D01*
X130972000Y-110128000D02*
X132172000Y-110128000D01*
G04 #@! TO.C,D2*
X103067000Y-116994000D02*
X103067000Y-112394000D01*
X99117000Y-116994000D02*
X99117000Y-112394000D01*
X101092000Y-115494000D02*
X101092000Y-115294000D01*
X101092000Y-113894000D02*
X101092000Y-114094000D01*
X100092000Y-114094000D02*
X102092000Y-114094000D01*
X102092000Y-114094000D02*
X101092000Y-115294000D01*
X101092000Y-115294000D02*
X100092000Y-114094000D01*
X100092000Y-115294000D02*
X102092000Y-115294000D01*
G04 #@! TO.C,R1*
X141208000Y-103212000D02*
X139208000Y-103212000D01*
X141208000Y-99712000D02*
X141208000Y-103212000D01*
X139208000Y-99712000D02*
X141208000Y-99712000D01*
X139208000Y-103212000D02*
X139208000Y-99712000D01*
G04 #@! TO.C,R2*
X138160000Y-99712000D02*
X138160000Y-103212000D01*
X138160000Y-103212000D02*
X136160000Y-103212000D01*
X136160000Y-103212000D02*
X136160000Y-99712000D01*
X136160000Y-99712000D02*
X138160000Y-99712000D01*
G04 #@! TO.C,RV1*
X131874000Y-103150000D02*
X131874000Y-102450000D01*
X134174000Y-103150000D02*
X131874000Y-103150000D01*
X131874000Y-100050000D02*
X131874000Y-100750000D01*
X134974000Y-101500000D02*
X134974000Y-101700000D01*
X134174000Y-100050000D02*
X131874000Y-100050000D01*
X134024000Y-101600000D02*
G75*
G03X134024000Y-101600000I-600000J0D01*
G01*
G04 #@! TO.C,J1*
X98806000Y-109982000D02*
X101346000Y-109982000D01*
X98806000Y-99822000D02*
X98806000Y-109982000D01*
X101346000Y-99822000D02*
X101346000Y-109982000D01*
X101346000Y-99822000D02*
X98806000Y-99822000D01*
G04 #@! TO.C,J2*
X141478000Y-106680000D02*
X138938000Y-106680000D01*
X141478000Y-106680000D02*
X141478000Y-116840000D01*
X138938000Y-106680000D02*
X138938000Y-116840000D01*
X138938000Y-116840000D02*
X141478000Y-116840000D01*
D12*
G04 #@! TO.C,REF\002A\002A*
X130746500Y-120967500D02*
X135445500Y-113982500D01*
X140144500Y-120967500D02*
X130746500Y-120967500D01*
X135445500Y-113982500D02*
X140144500Y-120967500D01*
X134947660Y-120373140D02*
X134846060Y-119473980D01*
X135745220Y-117574060D02*
X134947660Y-120373140D01*
X134546340Y-118374160D02*
X135745220Y-117574060D01*
X135346440Y-115374420D02*
X134546340Y-118374160D01*
X134947660Y-120373140D02*
X135547100Y-119674640D01*
X134546340Y-118374160D02*
X135846820Y-115572540D01*
X136146540Y-117274340D02*
X135547100Y-117673120D01*
X134947660Y-120373140D02*
X136146540Y-117274340D01*
G04 #@! TO.C,C1*
D11*
X110898000Y-101306285D02*
X110869428Y-101334857D01*
X110783714Y-101363428D01*
X110726571Y-101363428D01*
X110640857Y-101334857D01*
X110583714Y-101277714D01*
X110555142Y-101220571D01*
X110526571Y-101106285D01*
X110526571Y-101020571D01*
X110555142Y-100906285D01*
X110583714Y-100849142D01*
X110640857Y-100792000D01*
X110726571Y-100763428D01*
X110783714Y-100763428D01*
X110869428Y-100792000D01*
X110898000Y-100820571D01*
X111469428Y-101363428D02*
X111126571Y-101363428D01*
X111298000Y-101363428D02*
X111298000Y-100763428D01*
X111240857Y-100849142D01*
X111183714Y-100906285D01*
X111126571Y-100934857D01*
G04 #@! TO.C,T1*
X120904057Y-100966628D02*
X121246914Y-100966628D01*
X121075485Y-101566628D02*
X121075485Y-100966628D01*
X121761200Y-101566628D02*
X121418342Y-101566628D01*
X121589771Y-101566628D02*
X121589771Y-100966628D01*
X121532628Y-101052342D01*
X121475485Y-101109485D01*
X121418342Y-101138057D01*
G04 #@! TO.C,C2*
X135536000Y-113244285D02*
X135507428Y-113272857D01*
X135421714Y-113301428D01*
X135364571Y-113301428D01*
X135278857Y-113272857D01*
X135221714Y-113215714D01*
X135193142Y-113158571D01*
X135164571Y-113044285D01*
X135164571Y-112958571D01*
X135193142Y-112844285D01*
X135221714Y-112787142D01*
X135278857Y-112730000D01*
X135364571Y-112701428D01*
X135421714Y-112701428D01*
X135507428Y-112730000D01*
X135536000Y-112758571D01*
X135764571Y-112758571D02*
X135793142Y-112730000D01*
X135850285Y-112701428D01*
X135993142Y-112701428D01*
X136050285Y-112730000D01*
X136078857Y-112758571D01*
X136107428Y-112815714D01*
X136107428Y-112872857D01*
X136078857Y-112958571D01*
X135736000Y-113301428D01*
X136107428Y-113301428D01*
G04 #@! TO.C,D1*
X131129142Y-113096428D02*
X131129142Y-112496428D01*
X131272000Y-112496428D01*
X131357714Y-112525000D01*
X131414857Y-112582142D01*
X131443428Y-112639285D01*
X131472000Y-112753571D01*
X131472000Y-112839285D01*
X131443428Y-112953571D01*
X131414857Y-113010714D01*
X131357714Y-113067857D01*
X131272000Y-113096428D01*
X131129142Y-113096428D01*
X132043428Y-113096428D02*
X131700571Y-113096428D01*
X131872000Y-113096428D02*
X131872000Y-112496428D01*
X131814857Y-112582142D01*
X131757714Y-112639285D01*
X131700571Y-112667857D01*
G04 #@! TO.C,D2*
X103443142Y-114965428D02*
X103443142Y-114365428D01*
X103586000Y-114365428D01*
X103671714Y-114394000D01*
X103728857Y-114451142D01*
X103757428Y-114508285D01*
X103786000Y-114622571D01*
X103786000Y-114708285D01*
X103757428Y-114822571D01*
X103728857Y-114879714D01*
X103671714Y-114936857D01*
X103586000Y-114965428D01*
X103443142Y-114965428D01*
X104014571Y-114422571D02*
X104043142Y-114394000D01*
X104100285Y-114365428D01*
X104243142Y-114365428D01*
X104300285Y-114394000D01*
X104328857Y-114422571D01*
X104357428Y-114479714D01*
X104357428Y-114536857D01*
X104328857Y-114622571D01*
X103986000Y-114965428D01*
X104357428Y-114965428D01*
G04 #@! TO.C,R1*
X140108000Y-104157428D02*
X139908000Y-103871714D01*
X139765142Y-104157428D02*
X139765142Y-103557428D01*
X139993714Y-103557428D01*
X140050857Y-103586000D01*
X140079428Y-103614571D01*
X140108000Y-103671714D01*
X140108000Y-103757428D01*
X140079428Y-103814571D01*
X140050857Y-103843142D01*
X139993714Y-103871714D01*
X139765142Y-103871714D01*
X140679428Y-104157428D02*
X140336571Y-104157428D01*
X140508000Y-104157428D02*
X140508000Y-103557428D01*
X140450857Y-103643142D01*
X140393714Y-103700285D01*
X140336571Y-103728857D01*
G04 #@! TO.C,R2*
X137060000Y-104157428D02*
X136860000Y-103871714D01*
X136717142Y-104157428D02*
X136717142Y-103557428D01*
X136945714Y-103557428D01*
X137002857Y-103586000D01*
X137031428Y-103614571D01*
X137060000Y-103671714D01*
X137060000Y-103757428D01*
X137031428Y-103814571D01*
X137002857Y-103843142D01*
X136945714Y-103871714D01*
X136717142Y-103871714D01*
X137288571Y-103614571D02*
X137317142Y-103586000D01*
X137374285Y-103557428D01*
X137517142Y-103557428D01*
X137574285Y-103586000D01*
X137602857Y-103614571D01*
X137631428Y-103671714D01*
X137631428Y-103728857D01*
X137602857Y-103814571D01*
X137260000Y-104157428D01*
X137631428Y-104157428D01*
G04 #@! TO.C,RV1*
X133246857Y-104411428D02*
X133046857Y-104125714D01*
X132904000Y-104411428D02*
X132904000Y-103811428D01*
X133132571Y-103811428D01*
X133189714Y-103840000D01*
X133218285Y-103868571D01*
X133246857Y-103925714D01*
X133246857Y-104011428D01*
X133218285Y-104068571D01*
X133189714Y-104097142D01*
X133132571Y-104125714D01*
X132904000Y-104125714D01*
X133418285Y-103811428D02*
X133618285Y-104411428D01*
X133818285Y-103811428D01*
X134332571Y-104411428D02*
X133989714Y-104411428D01*
X134161142Y-104411428D02*
X134161142Y-103811428D01*
X134104000Y-103897142D01*
X134046857Y-103954285D01*
X133989714Y-103982857D01*
G04 #@! TO.C,J1*
X102162000Y-100255428D02*
X102162000Y-100684000D01*
X102133428Y-100769714D01*
X102076285Y-100826857D01*
X101990571Y-100855428D01*
X101933428Y-100855428D01*
X102762000Y-100855428D02*
X102419142Y-100855428D01*
X102590571Y-100855428D02*
X102590571Y-100255428D01*
X102533428Y-100341142D01*
X102476285Y-100398285D01*
X102419142Y-100426857D01*
G04 #@! TO.C,J2*
X140008000Y-117273428D02*
X140008000Y-117702000D01*
X139979428Y-117787714D01*
X139922285Y-117844857D01*
X139836571Y-117873428D01*
X139779428Y-117873428D01*
X140265142Y-117330571D02*
X140293714Y-117302000D01*
X140350857Y-117273428D01*
X140493714Y-117273428D01*
X140550857Y-117302000D01*
X140579428Y-117330571D01*
X140608000Y-117387714D01*
X140608000Y-117444857D01*
X140579428Y-117530571D01*
X140236571Y-117873428D01*
X140608000Y-117873428D01*
G04 #@! TD*
M02*
