G04 #@! TF.GenerationSoftware,KiCad,Pcbnew,5.0.0-rc2-unknown-r13164-44c1f578*
G04 #@! TF.CreationDate,2018-07-03T21:26:02+03:00*
G04 #@! TF.ProjectId,nixie-ps,6E697869652D70732E6B696361645F70,rev?*
G04 #@! TF.SameCoordinates,Original*
G04 #@! TF.FileFunction,Soldermask,Bot*
G04 #@! TF.FilePolarity,Negative*
%FSLAX46Y46*%
G04 Gerber Fmt 4.6, Leading zero omitted, Abs format (unit mm)*
G04 Created by KiCad (PCBNEW 5.0.0-rc2-unknown-r13164-44c1f578) date Tue Jul  3 21:26:02 2018*
%MOMM*%
%LPD*%
G01*
G04 APERTURE LIST*
%ADD10C,2.200000*%
%ADD11R,2.200000X2.200000*%
%ADD12R,1.650000X0.650000*%
%ADD13R,1.650000X1.350000*%
%ADD14R,1.350000X1.650000*%
%ADD15R,1.900000X1.900000*%
%ADD16O,1.900000X1.900000*%
%ADD17R,1.600000X2.700000*%
%ADD18R,0.800000X1.550000*%
%ADD19R,4.610000X3.745000*%
G04 APERTURE END LIST*
D10*
G04 #@! TO.C,T1*
X128287000Y-105000000D03*
X128287000Y-108750000D03*
X128287000Y-112500000D03*
X128287000Y-116250000D03*
X114537000Y-116250000D03*
X114537000Y-112500000D03*
X114537000Y-108750000D03*
D11*
X114537000Y-105000000D03*
G04 #@! TD*
D12*
G04 #@! TO.C,U1*
X105128000Y-108417000D03*
X105128000Y-107767000D03*
X105128000Y-107117000D03*
X105128000Y-106467000D03*
X109928000Y-106467000D03*
X109928000Y-107117000D03*
X109928000Y-107767000D03*
X109928000Y-108417000D03*
G04 #@! TD*
D13*
G04 #@! TO.C,C3*
X103632000Y-103908000D03*
X103632000Y-102108000D03*
G04 #@! TD*
D14*
G04 #@! TO.C,C4*
X102906400Y-116586000D03*
X101106400Y-116586000D03*
G04 #@! TD*
D13*
G04 #@! TO.C,R3*
X105918000Y-103908000D03*
X105918000Y-102108000D03*
G04 #@! TD*
G04 #@! TO.C,R4*
X111252000Y-102108000D03*
X111252000Y-103908000D03*
G04 #@! TD*
D15*
G04 #@! TO.C,J1*
X100076000Y-101092000D03*
D16*
X100076000Y-103632000D03*
X100076000Y-106172000D03*
X100076000Y-108712000D03*
G04 #@! TD*
G04 #@! TO.C,J2*
X140208000Y-115570000D03*
X140208000Y-113030000D03*
X140208000Y-110490000D03*
D15*
X140208000Y-107950000D03*
G04 #@! TD*
D17*
G04 #@! TO.C,R5*
X98515000Y-113284000D03*
X103415000Y-113284000D03*
G04 #@! TD*
D18*
G04 #@! TO.C,Q1*
X106756200Y-111229200D03*
X108026200Y-111229200D03*
X109296200Y-111229200D03*
X110566200Y-111229200D03*
D19*
X108661200Y-114897200D03*
D18*
X110566200Y-117344200D03*
X109296200Y-117297200D03*
X108026200Y-117297200D03*
X106756200Y-117249200D03*
G04 #@! TD*
M02*
