G04 #@! TF.GenerationSoftware,KiCad,Pcbnew,5.0.0-rc2-unknown-r13164-44c1f578*
G04 #@! TF.CreationDate,2018-07-01T17:53:07+03:00*
G04 #@! TF.ProjectId,nixie-ps,6E697869652D70732E6B696361645F70,rev?*
G04 #@! TF.SameCoordinates,Original*
G04 #@! TF.FileFunction,Copper,L1,Top,Signal*
G04 #@! TF.FilePolarity,Positive*
%FSLAX46Y46*%
G04 Gerber Fmt 4.6, Leading zero omitted, Abs format (unit mm)*
G04 Created by KiCad (PCBNEW 5.0.0-rc2-unknown-r13164-44c1f578) date Sun Jul  1 17:53:07 2018*
%MOMM*%
%LPD*%
G01*
G04 APERTURE LIST*
G04 #@! TA.AperFunction,ComponentPad*
%ADD10C,2.000000*%
G04 #@! TD*
G04 #@! TA.AperFunction,ComponentPad*
%ADD11R,2.000000X2.000000*%
G04 #@! TD*
G04 #@! TA.AperFunction,SMDPad,CuDef*
%ADD12R,1.600000X3.500000*%
G04 #@! TD*
G04 #@! TA.AperFunction,SMDPad,CuDef*
%ADD13R,3.500000X1.400000*%
G04 #@! TD*
G04 #@! TA.AperFunction,SMDPad,CuDef*
%ADD14R,1.250000X1.250000*%
G04 #@! TD*
G04 #@! TA.AperFunction,SMDPad,CuDef*
%ADD15R,2.300000X2.500000*%
G04 #@! TD*
G04 #@! TA.AperFunction,SMDPad,CuDef*
%ADD16R,1.450000X1.150000*%
G04 #@! TD*
G04 #@! TA.AperFunction,SMDPad,CuDef*
%ADD17R,0.900000X1.100000*%
G04 #@! TD*
G04 #@! TA.AperFunction,ComponentPad*
%ADD18R,1.700000X1.700000*%
G04 #@! TD*
G04 #@! TA.AperFunction,ComponentPad*
%ADD19O,1.700000X1.700000*%
G04 #@! TD*
G04 #@! TA.AperFunction,ViaPad*
%ADD20C,0.800000*%
G04 #@! TD*
G04 #@! TA.AperFunction,Conductor*
%ADD21C,0.300000*%
G04 #@! TD*
G04 #@! TA.AperFunction,Conductor*
%ADD22C,1.500000*%
G04 #@! TD*
G04 #@! TA.AperFunction,Conductor*
%ADD23C,1.000000*%
G04 #@! TD*
G04 #@! TA.AperFunction,Conductor*
%ADD24C,0.700000*%
G04 #@! TD*
G04 #@! TA.AperFunction,Conductor*
%ADD25C,0.254000*%
G04 #@! TD*
G04 APERTURE END LIST*
D10*
G04 #@! TO.P,T1,8*
G04 #@! TO.N,Net-(D1-Pad2)*
X128287000Y-105000000D03*
G04 #@! TO.P,T1,7*
G04 #@! TO.N,Net-(T1-Pad7)*
X128287000Y-108750000D03*
G04 #@! TO.P,T1,6*
G04 #@! TO.N,Net-(T1-Pad6)*
X128287000Y-112500000D03*
G04 #@! TO.P,T1,5*
G04 #@! TO.N,GND*
X128287000Y-116250000D03*
G04 #@! TO.P,T1,4*
G04 #@! TO.N,Net-(D2-Pad1)*
X114537000Y-116250000D03*
G04 #@! TO.P,T1,3*
G04 #@! TO.N,Net-(T1-Pad3)*
X114537000Y-112500000D03*
G04 #@! TO.P,T1,2*
G04 #@! TO.N,Net-(T1-Pad2)*
X114537000Y-108750000D03*
D11*
G04 #@! TO.P,T1,1*
G04 #@! TO.N,/VIN*
X114537000Y-105000000D03*
G04 #@! TD*
D12*
G04 #@! TO.P,C1,1*
G04 #@! TO.N,/VIN*
X107442000Y-101848000D03*
G04 #@! TO.P,C1,2*
G04 #@! TO.N,GND*
X107442000Y-107448000D03*
G04 #@! TD*
D13*
G04 #@! TO.P,C2,1*
G04 #@! TO.N,/VOUT*
X135636000Y-109510000D03*
G04 #@! TO.P,C2,2*
G04 #@! TO.N,GND*
X135636000Y-105410000D03*
G04 #@! TD*
D14*
G04 #@! TO.P,D1,1*
G04 #@! TO.N,/VOUT*
X131572000Y-109679000D03*
G04 #@! TO.P,D1,2*
G04 #@! TO.N,Net-(D1-Pad2)*
X131572000Y-106729000D03*
G04 #@! TD*
D15*
G04 #@! TO.P,D2,1*
G04 #@! TO.N,Net-(D2-Pad1)*
X101092000Y-112294000D03*
G04 #@! TO.P,D2,2*
G04 #@! TO.N,/ISEN*
X101092000Y-117094000D03*
G04 #@! TD*
D16*
G04 #@! TO.P,R1,2*
G04 #@! TO.N,/FB*
X140208000Y-100562000D03*
G04 #@! TO.P,R1,1*
G04 #@! TO.N,/VOUT*
X140208000Y-102362000D03*
G04 #@! TD*
G04 #@! TO.P,R2,1*
G04 #@! TO.N,/FB*
X137160000Y-100562000D03*
G04 #@! TO.P,R2,2*
G04 #@! TO.N,Net-(R2-Pad2)*
X137160000Y-102362000D03*
G04 #@! TD*
D17*
G04 #@! TO.P,RV1,1*
G04 #@! TO.N,Net-(R2-Pad2)*
X134874000Y-102450000D03*
G04 #@! TO.P,RV1,2*
G04 #@! TO.N,GND*
X131974000Y-101600000D03*
G04 #@! TO.P,RV1,3*
X134874000Y-100750000D03*
G04 #@! TD*
D18*
G04 #@! TO.P,J1,1*
G04 #@! TO.N,/VIN*
X100076000Y-101092000D03*
D19*
G04 #@! TO.P,J1,2*
X100076000Y-103632000D03*
G04 #@! TO.P,J1,3*
G04 #@! TO.N,GND*
X100076000Y-106172000D03*
G04 #@! TO.P,J1,4*
X100076000Y-108712000D03*
G04 #@! TD*
G04 #@! TO.P,J2,4*
G04 #@! TO.N,GND*
X140208000Y-113792000D03*
G04 #@! TO.P,J2,3*
X140208000Y-111252000D03*
G04 #@! TO.P,J2,2*
G04 #@! TO.N,/VOUT*
X140208000Y-108712000D03*
D18*
G04 #@! TO.P,J2,1*
X140208000Y-106172000D03*
G04 #@! TD*
D20*
G04 #@! TO.N,GND*
X98298000Y-119761000D03*
X98298000Y-120967500D03*
X134366000Y-103949500D03*
X135763000Y-103949500D03*
X137033000Y-103949500D03*
X115316000Y-100330000D03*
X117094000Y-100330000D03*
X119126000Y-100330000D03*
X116332000Y-107950000D03*
X116332000Y-109474000D03*
X116332000Y-110998000D03*
X98298000Y-118618000D03*
X98298000Y-117348000D03*
X108458000Y-105156000D03*
X109474000Y-104394000D03*
X116332000Y-112522000D03*
X133096000Y-104000000D03*
G04 #@! TO.N,Net-(D2-Pad1)*
X106172000Y-111760000D03*
X107696000Y-111760000D03*
X109220000Y-111760000D03*
X110744000Y-111760000D03*
X111760000Y-111252000D03*
X111760000Y-112776000D03*
X111760000Y-114300000D03*
X113284000Y-114808000D03*
X111760000Y-115824000D03*
X112776000Y-115824000D03*
X112268000Y-118237000D03*
X112268000Y-116840000D03*
X106362500Y-118237000D03*
X107696000Y-118237000D03*
X109220000Y-118237000D03*
X110744000Y-118237000D03*
X113792000Y-118237000D03*
X115316000Y-118237000D03*
X108712000Y-110744000D03*
X110236000Y-110744000D03*
G04 #@! TO.N,/FB*
X138684000Y-101600000D03*
G04 #@! TO.N,/ISEN*
X100076000Y-115316000D03*
X101092000Y-115316000D03*
X102108000Y-115316000D03*
G04 #@! TD*
D21*
G04 #@! TO.N,GND*
X135636000Y-104076500D02*
X135763000Y-103949500D01*
D22*
X135636000Y-105283000D02*
X135636000Y-104013000D01*
D23*
G04 #@! TO.N,/VOUT*
X140208000Y-103237000D02*
X140208000Y-106172000D01*
X140208000Y-102362000D02*
X140208000Y-103237000D01*
D24*
G04 #@! TO.N,/FB*
X140208000Y-100562000D02*
X138684000Y-100562000D01*
X138684000Y-101600000D02*
X138684000Y-100562000D01*
X138684000Y-100562000D02*
X137160000Y-100562000D01*
D21*
G04 #@! TO.N,Net-(R2-Pad2)*
X135050000Y-102362000D02*
X134874000Y-102538000D01*
D24*
X137414000Y-102362000D02*
X135050000Y-102362000D01*
D23*
G04 #@! TO.N,Net-(D1-Pad2)*
X131572000Y-105804000D02*
X131572000Y-106729000D01*
X130768000Y-105000000D02*
X131572000Y-105804000D01*
X128287000Y-105000000D02*
X130768000Y-105000000D01*
G04 #@! TD*
D25*
G04 #@! TO.N,/VIN*
G36*
X115951000Y-103428058D02*
X115951000Y-106553000D01*
X113093500Y-106553000D01*
X112279938Y-105468250D01*
X113156000Y-105468250D01*
X113156000Y-106075785D01*
X113214004Y-106215819D01*
X113321180Y-106322996D01*
X113461214Y-106381000D01*
X114068750Y-106381000D01*
X114164000Y-106285750D01*
X114164000Y-105373000D01*
X114910000Y-105373000D01*
X114910000Y-106285750D01*
X115005250Y-106381000D01*
X115612786Y-106381000D01*
X115752820Y-106322996D01*
X115859996Y-106215819D01*
X115918000Y-106075785D01*
X115918000Y-105468250D01*
X115822750Y-105373000D01*
X114910000Y-105373000D01*
X114164000Y-105373000D01*
X113251250Y-105373000D01*
X113156000Y-105468250D01*
X112279938Y-105468250D01*
X111121912Y-103924215D01*
X113156000Y-103924215D01*
X113156000Y-104531750D01*
X113251250Y-104627000D01*
X114164000Y-104627000D01*
X114164000Y-103714250D01*
X114910000Y-103714250D01*
X114910000Y-104627000D01*
X115822750Y-104627000D01*
X115918000Y-104531750D01*
X115918000Y-103924215D01*
X115859996Y-103784181D01*
X115752820Y-103677004D01*
X115612786Y-103619000D01*
X115005250Y-103619000D01*
X114910000Y-103714250D01*
X114164000Y-103714250D01*
X114068750Y-103619000D01*
X113461214Y-103619000D01*
X113321180Y-103677004D01*
X113214004Y-103784181D01*
X113156000Y-103924215D01*
X111121912Y-103924215D01*
X110845600Y-103555800D01*
X110808706Y-103522720D01*
X110744000Y-103505000D01*
X110032350Y-103505000D01*
X109679874Y-103359000D01*
X109268126Y-103359000D01*
X108915650Y-103505000D01*
X108623000Y-103505000D01*
X108623000Y-102316250D01*
X108527750Y-102221000D01*
X107815000Y-102221000D01*
X107815000Y-102241000D01*
X107069000Y-102241000D01*
X107069000Y-102221000D01*
X106356250Y-102221000D01*
X106261000Y-102316250D01*
X106261000Y-103505000D01*
X102108000Y-103505000D01*
X102059399Y-103514667D01*
X102018197Y-103542197D01*
X101999098Y-103566659D01*
X101274093Y-104775000D01*
X100658170Y-104775000D01*
X100655418Y-104773161D01*
X100449002Y-104732102D01*
X100449002Y-104709915D01*
X100627931Y-104732371D01*
X101007012Y-104437395D01*
X101176336Y-104183926D01*
X101148753Y-104005000D01*
X100449000Y-104005000D01*
X100449000Y-104025000D01*
X99703000Y-104025000D01*
X99703000Y-104005000D01*
X99003247Y-104005000D01*
X98975664Y-104183926D01*
X99144988Y-104437395D01*
X99524069Y-104732371D01*
X99702998Y-104709915D01*
X99702998Y-104732102D01*
X99496582Y-104773161D01*
X99493830Y-104775000D01*
X98679000Y-104775000D01*
X98679000Y-103080074D01*
X98975664Y-103080074D01*
X99003247Y-103259000D01*
X99703000Y-103259000D01*
X99703000Y-102554085D01*
X100449000Y-102554085D01*
X100449000Y-103259000D01*
X101148753Y-103259000D01*
X101176336Y-103080074D01*
X101007012Y-102826605D01*
X100627931Y-102531629D01*
X100449000Y-102554085D01*
X99703000Y-102554085D01*
X99524069Y-102531629D01*
X99144988Y-102826605D01*
X98975664Y-103080074D01*
X98679000Y-103080074D01*
X98679000Y-101560250D01*
X98845000Y-101560250D01*
X98845000Y-102017785D01*
X98903004Y-102157819D01*
X99010180Y-102264996D01*
X99150214Y-102323000D01*
X99607750Y-102323000D01*
X99703000Y-102227750D01*
X99703000Y-101465000D01*
X100449000Y-101465000D01*
X100449000Y-102227750D01*
X100544250Y-102323000D01*
X101001786Y-102323000D01*
X101141820Y-102264996D01*
X101248996Y-102157819D01*
X101307000Y-102017785D01*
X101307000Y-101560250D01*
X101211750Y-101465000D01*
X100449000Y-101465000D01*
X99703000Y-101465000D01*
X98940250Y-101465000D01*
X98845000Y-101560250D01*
X98679000Y-101560250D01*
X98679000Y-100166215D01*
X98845000Y-100166215D01*
X98845000Y-100623750D01*
X98940250Y-100719000D01*
X99703000Y-100719000D01*
X99703000Y-99956250D01*
X100449000Y-99956250D01*
X100449000Y-100719000D01*
X101211750Y-100719000D01*
X101307000Y-100623750D01*
X101307000Y-100166215D01*
X101248996Y-100026181D01*
X101245030Y-100022214D01*
X106261000Y-100022214D01*
X106261000Y-101379750D01*
X106356250Y-101475000D01*
X107069000Y-101475000D01*
X107069000Y-99812250D01*
X107815000Y-99812250D01*
X107815000Y-101475000D01*
X108527750Y-101475000D01*
X108623000Y-101379750D01*
X108623000Y-100022214D01*
X108564996Y-99882180D01*
X108457819Y-99775004D01*
X108317785Y-99717000D01*
X107910250Y-99717000D01*
X107815000Y-99812250D01*
X107069000Y-99812250D01*
X106973750Y-99717000D01*
X106566215Y-99717000D01*
X106426181Y-99775004D01*
X106319004Y-99882180D01*
X106261000Y-100022214D01*
X101245030Y-100022214D01*
X101141820Y-99919004D01*
X101001786Y-99861000D01*
X100544250Y-99861000D01*
X100449000Y-99956250D01*
X99703000Y-99956250D01*
X99607750Y-99861000D01*
X99150214Y-99861000D01*
X99010180Y-99919004D01*
X98903004Y-100026181D01*
X98845000Y-100166215D01*
X98679000Y-100166215D01*
X98679000Y-99710000D01*
X112480812Y-99710000D01*
X115951000Y-103428058D01*
X115951000Y-103428058D01*
G37*
X115951000Y-103428058D02*
X115951000Y-106553000D01*
X113093500Y-106553000D01*
X112279938Y-105468250D01*
X113156000Y-105468250D01*
X113156000Y-106075785D01*
X113214004Y-106215819D01*
X113321180Y-106322996D01*
X113461214Y-106381000D01*
X114068750Y-106381000D01*
X114164000Y-106285750D01*
X114164000Y-105373000D01*
X114910000Y-105373000D01*
X114910000Y-106285750D01*
X115005250Y-106381000D01*
X115612786Y-106381000D01*
X115752820Y-106322996D01*
X115859996Y-106215819D01*
X115918000Y-106075785D01*
X115918000Y-105468250D01*
X115822750Y-105373000D01*
X114910000Y-105373000D01*
X114164000Y-105373000D01*
X113251250Y-105373000D01*
X113156000Y-105468250D01*
X112279938Y-105468250D01*
X111121912Y-103924215D01*
X113156000Y-103924215D01*
X113156000Y-104531750D01*
X113251250Y-104627000D01*
X114164000Y-104627000D01*
X114164000Y-103714250D01*
X114910000Y-103714250D01*
X114910000Y-104627000D01*
X115822750Y-104627000D01*
X115918000Y-104531750D01*
X115918000Y-103924215D01*
X115859996Y-103784181D01*
X115752820Y-103677004D01*
X115612786Y-103619000D01*
X115005250Y-103619000D01*
X114910000Y-103714250D01*
X114164000Y-103714250D01*
X114068750Y-103619000D01*
X113461214Y-103619000D01*
X113321180Y-103677004D01*
X113214004Y-103784181D01*
X113156000Y-103924215D01*
X111121912Y-103924215D01*
X110845600Y-103555800D01*
X110808706Y-103522720D01*
X110744000Y-103505000D01*
X110032350Y-103505000D01*
X109679874Y-103359000D01*
X109268126Y-103359000D01*
X108915650Y-103505000D01*
X108623000Y-103505000D01*
X108623000Y-102316250D01*
X108527750Y-102221000D01*
X107815000Y-102221000D01*
X107815000Y-102241000D01*
X107069000Y-102241000D01*
X107069000Y-102221000D01*
X106356250Y-102221000D01*
X106261000Y-102316250D01*
X106261000Y-103505000D01*
X102108000Y-103505000D01*
X102059399Y-103514667D01*
X102018197Y-103542197D01*
X101999098Y-103566659D01*
X101274093Y-104775000D01*
X100658170Y-104775000D01*
X100655418Y-104773161D01*
X100449002Y-104732102D01*
X100449002Y-104709915D01*
X100627931Y-104732371D01*
X101007012Y-104437395D01*
X101176336Y-104183926D01*
X101148753Y-104005000D01*
X100449000Y-104005000D01*
X100449000Y-104025000D01*
X99703000Y-104025000D01*
X99703000Y-104005000D01*
X99003247Y-104005000D01*
X98975664Y-104183926D01*
X99144988Y-104437395D01*
X99524069Y-104732371D01*
X99702998Y-104709915D01*
X99702998Y-104732102D01*
X99496582Y-104773161D01*
X99493830Y-104775000D01*
X98679000Y-104775000D01*
X98679000Y-103080074D01*
X98975664Y-103080074D01*
X99003247Y-103259000D01*
X99703000Y-103259000D01*
X99703000Y-102554085D01*
X100449000Y-102554085D01*
X100449000Y-103259000D01*
X101148753Y-103259000D01*
X101176336Y-103080074D01*
X101007012Y-102826605D01*
X100627931Y-102531629D01*
X100449000Y-102554085D01*
X99703000Y-102554085D01*
X99524069Y-102531629D01*
X99144988Y-102826605D01*
X98975664Y-103080074D01*
X98679000Y-103080074D01*
X98679000Y-101560250D01*
X98845000Y-101560250D01*
X98845000Y-102017785D01*
X98903004Y-102157819D01*
X99010180Y-102264996D01*
X99150214Y-102323000D01*
X99607750Y-102323000D01*
X99703000Y-102227750D01*
X99703000Y-101465000D01*
X100449000Y-101465000D01*
X100449000Y-102227750D01*
X100544250Y-102323000D01*
X101001786Y-102323000D01*
X101141820Y-102264996D01*
X101248996Y-102157819D01*
X101307000Y-102017785D01*
X101307000Y-101560250D01*
X101211750Y-101465000D01*
X100449000Y-101465000D01*
X99703000Y-101465000D01*
X98940250Y-101465000D01*
X98845000Y-101560250D01*
X98679000Y-101560250D01*
X98679000Y-100166215D01*
X98845000Y-100166215D01*
X98845000Y-100623750D01*
X98940250Y-100719000D01*
X99703000Y-100719000D01*
X99703000Y-99956250D01*
X100449000Y-99956250D01*
X100449000Y-100719000D01*
X101211750Y-100719000D01*
X101307000Y-100623750D01*
X101307000Y-100166215D01*
X101248996Y-100026181D01*
X101245030Y-100022214D01*
X106261000Y-100022214D01*
X106261000Y-101379750D01*
X106356250Y-101475000D01*
X107069000Y-101475000D01*
X107069000Y-99812250D01*
X107815000Y-99812250D01*
X107815000Y-101475000D01*
X108527750Y-101475000D01*
X108623000Y-101379750D01*
X108623000Y-100022214D01*
X108564996Y-99882180D01*
X108457819Y-99775004D01*
X108317785Y-99717000D01*
X107910250Y-99717000D01*
X107815000Y-99812250D01*
X107069000Y-99812250D01*
X106973750Y-99717000D01*
X106566215Y-99717000D01*
X106426181Y-99775004D01*
X106319004Y-99882180D01*
X106261000Y-100022214D01*
X101245030Y-100022214D01*
X101141820Y-99919004D01*
X101001786Y-99861000D01*
X100544250Y-99861000D01*
X100449000Y-99956250D01*
X99703000Y-99956250D01*
X99607750Y-99861000D01*
X99150214Y-99861000D01*
X99010180Y-99919004D01*
X98903004Y-100026181D01*
X98845000Y-100166215D01*
X98679000Y-100166215D01*
X98679000Y-99710000D01*
X112480812Y-99710000D01*
X115951000Y-103428058D01*
G04 #@! TO.N,Net-(D2-Pad1)*
G36*
X112649000Y-114300000D02*
X112658667Y-114348601D01*
X112686197Y-114389803D01*
X112727399Y-114417333D01*
X112776000Y-114427000D01*
X115951000Y-114427000D01*
X115951000Y-118745000D01*
X103759000Y-118745000D01*
X103759000Y-117263742D01*
X113702863Y-117263742D01*
X113815485Y-117459146D01*
X114333126Y-117643217D01*
X114881806Y-117615184D01*
X115258515Y-117459146D01*
X115371137Y-117263742D01*
X114537000Y-116429605D01*
X113702863Y-117263742D01*
X103759000Y-117263742D01*
X103759000Y-116046126D01*
X113143783Y-116046126D01*
X113171816Y-116594806D01*
X113327854Y-116971515D01*
X113523258Y-117084137D01*
X114357395Y-116250000D01*
X114716605Y-116250000D01*
X115550742Y-117084137D01*
X115746146Y-116971515D01*
X115930217Y-116453874D01*
X115902184Y-115905194D01*
X115746146Y-115528485D01*
X115550742Y-115415863D01*
X114716605Y-116250000D01*
X114357395Y-116250000D01*
X113523258Y-115415863D01*
X113327854Y-115528485D01*
X113143783Y-116046126D01*
X103759000Y-116046126D01*
X103759000Y-115236258D01*
X113702863Y-115236258D01*
X114537000Y-116070395D01*
X115371137Y-115236258D01*
X115258515Y-115040854D01*
X114740874Y-114856783D01*
X114192194Y-114884816D01*
X113815485Y-115040854D01*
X113702863Y-115236258D01*
X103759000Y-115236258D01*
X103759000Y-114046000D01*
X103749333Y-113997399D01*
X103721803Y-113956197D01*
X103680601Y-113928667D01*
X103632000Y-113919000D01*
X102332270Y-113919000D01*
X102457819Y-113866996D01*
X102564996Y-113759820D01*
X102623000Y-113619786D01*
X102623000Y-112516250D01*
X102527750Y-112421000D01*
X101219000Y-112421000D01*
X101219000Y-112441000D01*
X100965000Y-112441000D01*
X100965000Y-112421000D01*
X99656250Y-112421000D01*
X99561000Y-112516250D01*
X99561000Y-113619786D01*
X99619004Y-113759820D01*
X99726181Y-113866996D01*
X99851730Y-113919000D01*
X99441000Y-113919000D01*
X99441000Y-110968214D01*
X99561000Y-110968214D01*
X99561000Y-112071750D01*
X99656250Y-112167000D01*
X100965000Y-112167000D01*
X100965000Y-110758250D01*
X101219000Y-110758250D01*
X101219000Y-112167000D01*
X102527750Y-112167000D01*
X102623000Y-112071750D01*
X102623000Y-110968214D01*
X102564996Y-110828180D01*
X102457819Y-110721004D01*
X102317785Y-110663000D01*
X101314250Y-110663000D01*
X101219000Y-110758250D01*
X100965000Y-110758250D01*
X100869750Y-110663000D01*
X99866215Y-110663000D01*
X99726181Y-110721004D01*
X99619004Y-110828180D01*
X99561000Y-110968214D01*
X99441000Y-110968214D01*
X99441000Y-110617000D01*
X107950000Y-110617000D01*
X107998601Y-110607333D01*
X108039803Y-110579803D01*
X108764606Y-109855000D01*
X112649000Y-109855000D01*
X112649000Y-114300000D01*
X112649000Y-114300000D01*
G37*
X112649000Y-114300000D02*
X112658667Y-114348601D01*
X112686197Y-114389803D01*
X112727399Y-114417333D01*
X112776000Y-114427000D01*
X115951000Y-114427000D01*
X115951000Y-118745000D01*
X103759000Y-118745000D01*
X103759000Y-117263742D01*
X113702863Y-117263742D01*
X113815485Y-117459146D01*
X114333126Y-117643217D01*
X114881806Y-117615184D01*
X115258515Y-117459146D01*
X115371137Y-117263742D01*
X114537000Y-116429605D01*
X113702863Y-117263742D01*
X103759000Y-117263742D01*
X103759000Y-116046126D01*
X113143783Y-116046126D01*
X113171816Y-116594806D01*
X113327854Y-116971515D01*
X113523258Y-117084137D01*
X114357395Y-116250000D01*
X114716605Y-116250000D01*
X115550742Y-117084137D01*
X115746146Y-116971515D01*
X115930217Y-116453874D01*
X115902184Y-115905194D01*
X115746146Y-115528485D01*
X115550742Y-115415863D01*
X114716605Y-116250000D01*
X114357395Y-116250000D01*
X113523258Y-115415863D01*
X113327854Y-115528485D01*
X113143783Y-116046126D01*
X103759000Y-116046126D01*
X103759000Y-115236258D01*
X113702863Y-115236258D01*
X114537000Y-116070395D01*
X115371137Y-115236258D01*
X115258515Y-115040854D01*
X114740874Y-114856783D01*
X114192194Y-114884816D01*
X113815485Y-115040854D01*
X113702863Y-115236258D01*
X103759000Y-115236258D01*
X103759000Y-114046000D01*
X103749333Y-113997399D01*
X103721803Y-113956197D01*
X103680601Y-113928667D01*
X103632000Y-113919000D01*
X102332270Y-113919000D01*
X102457819Y-113866996D01*
X102564996Y-113759820D01*
X102623000Y-113619786D01*
X102623000Y-112516250D01*
X102527750Y-112421000D01*
X101219000Y-112421000D01*
X101219000Y-112441000D01*
X100965000Y-112441000D01*
X100965000Y-112421000D01*
X99656250Y-112421000D01*
X99561000Y-112516250D01*
X99561000Y-113619786D01*
X99619004Y-113759820D01*
X99726181Y-113866996D01*
X99851730Y-113919000D01*
X99441000Y-113919000D01*
X99441000Y-110968214D01*
X99561000Y-110968214D01*
X99561000Y-112071750D01*
X99656250Y-112167000D01*
X100965000Y-112167000D01*
X100965000Y-110758250D01*
X101219000Y-110758250D01*
X101219000Y-112167000D01*
X102527750Y-112167000D01*
X102623000Y-112071750D01*
X102623000Y-110968214D01*
X102564996Y-110828180D01*
X102457819Y-110721004D01*
X102317785Y-110663000D01*
X101314250Y-110663000D01*
X101219000Y-110758250D01*
X100965000Y-110758250D01*
X100869750Y-110663000D01*
X99866215Y-110663000D01*
X99726181Y-110721004D01*
X99619004Y-110828180D01*
X99561000Y-110968214D01*
X99441000Y-110968214D01*
X99441000Y-110617000D01*
X107950000Y-110617000D01*
X107998601Y-110607333D01*
X108039803Y-110579803D01*
X108764606Y-109855000D01*
X112649000Y-109855000D01*
X112649000Y-114300000D01*
G04 #@! TO.N,/ISEN*
G36*
X102743000Y-118745000D02*
X99441000Y-118745000D01*
X99441000Y-117316250D01*
X99561000Y-117316250D01*
X99561000Y-118419786D01*
X99619004Y-118559820D01*
X99726181Y-118666996D01*
X99866215Y-118725000D01*
X100869750Y-118725000D01*
X100965000Y-118629750D01*
X100965000Y-117221000D01*
X101219000Y-117221000D01*
X101219000Y-118629750D01*
X101314250Y-118725000D01*
X102317785Y-118725000D01*
X102457819Y-118666996D01*
X102564996Y-118559820D01*
X102623000Y-118419786D01*
X102623000Y-117316250D01*
X102527750Y-117221000D01*
X101219000Y-117221000D01*
X100965000Y-117221000D01*
X99656250Y-117221000D01*
X99561000Y-117316250D01*
X99441000Y-117316250D01*
X99441000Y-115768214D01*
X99561000Y-115768214D01*
X99561000Y-116871750D01*
X99656250Y-116967000D01*
X100965000Y-116967000D01*
X100965000Y-115558250D01*
X101219000Y-115558250D01*
X101219000Y-116967000D01*
X102527750Y-116967000D01*
X102623000Y-116871750D01*
X102623000Y-115768214D01*
X102564996Y-115628180D01*
X102457819Y-115521004D01*
X102317785Y-115463000D01*
X101314250Y-115463000D01*
X101219000Y-115558250D01*
X100965000Y-115558250D01*
X100869750Y-115463000D01*
X99866215Y-115463000D01*
X99726181Y-115521004D01*
X99619004Y-115628180D01*
X99561000Y-115768214D01*
X99441000Y-115768214D01*
X99441000Y-114935000D01*
X102743000Y-114935000D01*
X102743000Y-118745000D01*
X102743000Y-118745000D01*
G37*
X102743000Y-118745000D02*
X99441000Y-118745000D01*
X99441000Y-117316250D01*
X99561000Y-117316250D01*
X99561000Y-118419786D01*
X99619004Y-118559820D01*
X99726181Y-118666996D01*
X99866215Y-118725000D01*
X100869750Y-118725000D01*
X100965000Y-118629750D01*
X100965000Y-117221000D01*
X101219000Y-117221000D01*
X101219000Y-118629750D01*
X101314250Y-118725000D01*
X102317785Y-118725000D01*
X102457819Y-118666996D01*
X102564996Y-118559820D01*
X102623000Y-118419786D01*
X102623000Y-117316250D01*
X102527750Y-117221000D01*
X101219000Y-117221000D01*
X100965000Y-117221000D01*
X99656250Y-117221000D01*
X99561000Y-117316250D01*
X99441000Y-117316250D01*
X99441000Y-115768214D01*
X99561000Y-115768214D01*
X99561000Y-116871750D01*
X99656250Y-116967000D01*
X100965000Y-116967000D01*
X100965000Y-115558250D01*
X101219000Y-115558250D01*
X101219000Y-116967000D01*
X102527750Y-116967000D01*
X102623000Y-116871750D01*
X102623000Y-115768214D01*
X102564996Y-115628180D01*
X102457819Y-115521004D01*
X102317785Y-115463000D01*
X101314250Y-115463000D01*
X101219000Y-115558250D01*
X100965000Y-115558250D01*
X100869750Y-115463000D01*
X99866215Y-115463000D01*
X99726181Y-115521004D01*
X99619004Y-115628180D01*
X99561000Y-115768214D01*
X99441000Y-115768214D01*
X99441000Y-114935000D01*
X102743000Y-114935000D01*
X102743000Y-118745000D01*
G04 #@! TO.N,/VOUT*
G36*
X138977000Y-105949750D02*
X139072250Y-106045000D01*
X140081000Y-106045000D01*
X140081000Y-106025000D01*
X140335000Y-106025000D01*
X140335000Y-106045000D01*
X141343750Y-106045000D01*
X141439000Y-105949750D01*
X141439000Y-105283000D01*
X141859000Y-105283000D01*
X141859000Y-109855000D01*
X141135761Y-109855000D01*
X140917015Y-109708838D01*
X140956056Y-109689652D01*
X141273245Y-109328964D01*
X141397489Y-109028980D01*
X141336627Y-108839000D01*
X140335000Y-108839000D01*
X140335000Y-108859000D01*
X140081000Y-108859000D01*
X140081000Y-108839000D01*
X139079373Y-108839000D01*
X139018511Y-109028980D01*
X139142755Y-109328964D01*
X139459944Y-109689652D01*
X139498985Y-109708838D01*
X139280239Y-109855000D01*
X138430000Y-109855000D01*
X138381399Y-109864667D01*
X138330830Y-109902664D01*
X137352961Y-111125000D01*
X130937000Y-111125000D01*
X130937000Y-110685000D01*
X131349750Y-110685000D01*
X131445000Y-110589750D01*
X131445000Y-109806000D01*
X131699000Y-109806000D01*
X131699000Y-110589750D01*
X131794250Y-110685000D01*
X132272785Y-110685000D01*
X132412819Y-110626996D01*
X132519996Y-110519820D01*
X132578000Y-110379786D01*
X132578000Y-109901250D01*
X132482750Y-109806000D01*
X131699000Y-109806000D01*
X131445000Y-109806000D01*
X131425000Y-109806000D01*
X131425000Y-109732250D01*
X133505000Y-109732250D01*
X133505000Y-110285786D01*
X133563004Y-110425820D01*
X133670181Y-110532996D01*
X133810215Y-110591000D01*
X135413750Y-110591000D01*
X135509000Y-110495750D01*
X135509000Y-109637000D01*
X135763000Y-109637000D01*
X135763000Y-110495750D01*
X135858250Y-110591000D01*
X137461785Y-110591000D01*
X137601819Y-110532996D01*
X137708996Y-110425820D01*
X137767000Y-110285786D01*
X137767000Y-109732250D01*
X137671750Y-109637000D01*
X135763000Y-109637000D01*
X135509000Y-109637000D01*
X133600250Y-109637000D01*
X133505000Y-109732250D01*
X131425000Y-109732250D01*
X131425000Y-109552000D01*
X131445000Y-109552000D01*
X131445000Y-108768250D01*
X131699000Y-108768250D01*
X131699000Y-109552000D01*
X132482750Y-109552000D01*
X132578000Y-109456750D01*
X132578000Y-108978214D01*
X132519996Y-108838180D01*
X132416030Y-108734214D01*
X133505000Y-108734214D01*
X133505000Y-109287750D01*
X133600250Y-109383000D01*
X135509000Y-109383000D01*
X135509000Y-108524250D01*
X135763000Y-108524250D01*
X135763000Y-109383000D01*
X137671750Y-109383000D01*
X137767000Y-109287750D01*
X137767000Y-108734214D01*
X137708996Y-108594180D01*
X137601819Y-108487004D01*
X137461785Y-108429000D01*
X135858250Y-108429000D01*
X135763000Y-108524250D01*
X135509000Y-108524250D01*
X135413750Y-108429000D01*
X133810215Y-108429000D01*
X133670181Y-108487004D01*
X133563004Y-108594180D01*
X133505000Y-108734214D01*
X132416030Y-108734214D01*
X132412819Y-108731004D01*
X132272785Y-108673000D01*
X131794250Y-108673000D01*
X131699000Y-108768250D01*
X131445000Y-108768250D01*
X131349750Y-108673000D01*
X130937000Y-108673000D01*
X130937000Y-108395020D01*
X139018511Y-108395020D01*
X139079373Y-108585000D01*
X140081000Y-108585000D01*
X140081000Y-107582807D01*
X140335000Y-107582807D01*
X140335000Y-108585000D01*
X141336627Y-108585000D01*
X141397489Y-108395020D01*
X141273245Y-108095036D01*
X140956056Y-107734348D01*
X140524982Y-107522499D01*
X140335000Y-107582807D01*
X140081000Y-107582807D01*
X139891018Y-107522499D01*
X139459944Y-107734348D01*
X139142755Y-108095036D01*
X139018511Y-108395020D01*
X130937000Y-108395020D01*
X130937000Y-108331000D01*
X137668000Y-108331000D01*
X137716601Y-108321333D01*
X137757803Y-108293803D01*
X138519803Y-107531803D01*
X138547333Y-107490601D01*
X138557000Y-107442000D01*
X138557000Y-106394250D01*
X138977000Y-106394250D01*
X138977000Y-107097785D01*
X139035004Y-107237819D01*
X139142180Y-107344996D01*
X139282214Y-107403000D01*
X139985750Y-107403000D01*
X140081000Y-107307750D01*
X140081000Y-106299000D01*
X140335000Y-106299000D01*
X140335000Y-107307750D01*
X140430250Y-107403000D01*
X141133786Y-107403000D01*
X141273820Y-107344996D01*
X141380996Y-107237819D01*
X141439000Y-107097785D01*
X141439000Y-106394250D01*
X141343750Y-106299000D01*
X140335000Y-106299000D01*
X140081000Y-106299000D01*
X139072250Y-106299000D01*
X138977000Y-106394250D01*
X138557000Y-106394250D01*
X138557000Y-105283000D01*
X138977000Y-105283000D01*
X138977000Y-105949750D01*
X138977000Y-105949750D01*
G37*
X138977000Y-105949750D02*
X139072250Y-106045000D01*
X140081000Y-106045000D01*
X140081000Y-106025000D01*
X140335000Y-106025000D01*
X140335000Y-106045000D01*
X141343750Y-106045000D01*
X141439000Y-105949750D01*
X141439000Y-105283000D01*
X141859000Y-105283000D01*
X141859000Y-109855000D01*
X141135761Y-109855000D01*
X140917015Y-109708838D01*
X140956056Y-109689652D01*
X141273245Y-109328964D01*
X141397489Y-109028980D01*
X141336627Y-108839000D01*
X140335000Y-108839000D01*
X140335000Y-108859000D01*
X140081000Y-108859000D01*
X140081000Y-108839000D01*
X139079373Y-108839000D01*
X139018511Y-109028980D01*
X139142755Y-109328964D01*
X139459944Y-109689652D01*
X139498985Y-109708838D01*
X139280239Y-109855000D01*
X138430000Y-109855000D01*
X138381399Y-109864667D01*
X138330830Y-109902664D01*
X137352961Y-111125000D01*
X130937000Y-111125000D01*
X130937000Y-110685000D01*
X131349750Y-110685000D01*
X131445000Y-110589750D01*
X131445000Y-109806000D01*
X131699000Y-109806000D01*
X131699000Y-110589750D01*
X131794250Y-110685000D01*
X132272785Y-110685000D01*
X132412819Y-110626996D01*
X132519996Y-110519820D01*
X132578000Y-110379786D01*
X132578000Y-109901250D01*
X132482750Y-109806000D01*
X131699000Y-109806000D01*
X131445000Y-109806000D01*
X131425000Y-109806000D01*
X131425000Y-109732250D01*
X133505000Y-109732250D01*
X133505000Y-110285786D01*
X133563004Y-110425820D01*
X133670181Y-110532996D01*
X133810215Y-110591000D01*
X135413750Y-110591000D01*
X135509000Y-110495750D01*
X135509000Y-109637000D01*
X135763000Y-109637000D01*
X135763000Y-110495750D01*
X135858250Y-110591000D01*
X137461785Y-110591000D01*
X137601819Y-110532996D01*
X137708996Y-110425820D01*
X137767000Y-110285786D01*
X137767000Y-109732250D01*
X137671750Y-109637000D01*
X135763000Y-109637000D01*
X135509000Y-109637000D01*
X133600250Y-109637000D01*
X133505000Y-109732250D01*
X131425000Y-109732250D01*
X131425000Y-109552000D01*
X131445000Y-109552000D01*
X131445000Y-108768250D01*
X131699000Y-108768250D01*
X131699000Y-109552000D01*
X132482750Y-109552000D01*
X132578000Y-109456750D01*
X132578000Y-108978214D01*
X132519996Y-108838180D01*
X132416030Y-108734214D01*
X133505000Y-108734214D01*
X133505000Y-109287750D01*
X133600250Y-109383000D01*
X135509000Y-109383000D01*
X135509000Y-108524250D01*
X135763000Y-108524250D01*
X135763000Y-109383000D01*
X137671750Y-109383000D01*
X137767000Y-109287750D01*
X137767000Y-108734214D01*
X137708996Y-108594180D01*
X137601819Y-108487004D01*
X137461785Y-108429000D01*
X135858250Y-108429000D01*
X135763000Y-108524250D01*
X135509000Y-108524250D01*
X135413750Y-108429000D01*
X133810215Y-108429000D01*
X133670181Y-108487004D01*
X133563004Y-108594180D01*
X133505000Y-108734214D01*
X132416030Y-108734214D01*
X132412819Y-108731004D01*
X132272785Y-108673000D01*
X131794250Y-108673000D01*
X131699000Y-108768250D01*
X131445000Y-108768250D01*
X131349750Y-108673000D01*
X130937000Y-108673000D01*
X130937000Y-108395020D01*
X139018511Y-108395020D01*
X139079373Y-108585000D01*
X140081000Y-108585000D01*
X140081000Y-107582807D01*
X140335000Y-107582807D01*
X140335000Y-108585000D01*
X141336627Y-108585000D01*
X141397489Y-108395020D01*
X141273245Y-108095036D01*
X140956056Y-107734348D01*
X140524982Y-107522499D01*
X140335000Y-107582807D01*
X140081000Y-107582807D01*
X139891018Y-107522499D01*
X139459944Y-107734348D01*
X139142755Y-108095036D01*
X139018511Y-108395020D01*
X130937000Y-108395020D01*
X130937000Y-108331000D01*
X137668000Y-108331000D01*
X137716601Y-108321333D01*
X137757803Y-108293803D01*
X138519803Y-107531803D01*
X138547333Y-107490601D01*
X138557000Y-107442000D01*
X138557000Y-106394250D01*
X138977000Y-106394250D01*
X138977000Y-107097785D01*
X139035004Y-107237819D01*
X139142180Y-107344996D01*
X139282214Y-107403000D01*
X139985750Y-107403000D01*
X140081000Y-107307750D01*
X140081000Y-106299000D01*
X140335000Y-106299000D01*
X140335000Y-107307750D01*
X140430250Y-107403000D01*
X141133786Y-107403000D01*
X141273820Y-107344996D01*
X141380996Y-107237819D01*
X141439000Y-107097785D01*
X141439000Y-106394250D01*
X141343750Y-106299000D01*
X140335000Y-106299000D01*
X140081000Y-106299000D01*
X139072250Y-106299000D01*
X138977000Y-106394250D01*
X138557000Y-106394250D01*
X138557000Y-105283000D01*
X138977000Y-105283000D01*
X138977000Y-105949750D01*
G04 #@! TO.N,GND*
G36*
X97917000Y-99568000D02*
X97917000Y-104902000D01*
X97965336Y-105145004D01*
X98102987Y-105351013D01*
X98308996Y-105488664D01*
X98552000Y-105537000D01*
X99026616Y-105537000D01*
X99010755Y-105555036D01*
X98886511Y-105855020D01*
X98947373Y-106045000D01*
X99949000Y-106045000D01*
X99949000Y-106025000D01*
X100203000Y-106025000D01*
X100203000Y-106045000D01*
X101204627Y-106045000D01*
X101265489Y-105855020D01*
X101169069Y-105622214D01*
X106261000Y-105622214D01*
X106261000Y-107225750D01*
X106356250Y-107321000D01*
X107315000Y-107321000D01*
X107315000Y-105412250D01*
X107569000Y-105412250D01*
X107569000Y-107321000D01*
X108527750Y-107321000D01*
X108623000Y-107225750D01*
X108623000Y-105622214D01*
X108564996Y-105482180D01*
X108457819Y-105375004D01*
X108317785Y-105317000D01*
X107664250Y-105317000D01*
X107569000Y-105412250D01*
X107315000Y-105412250D01*
X107219750Y-105317000D01*
X106566215Y-105317000D01*
X106426181Y-105375004D01*
X106319004Y-105482180D01*
X106261000Y-105622214D01*
X101169069Y-105622214D01*
X101141245Y-105555036D01*
X101125384Y-105537000D01*
X101346000Y-105537000D01*
X101500010Y-105518040D01*
X101724035Y-105412210D01*
X101890508Y-105228705D01*
X102467531Y-104267000D01*
X110426500Y-104267000D01*
X112522000Y-107061000D01*
X112786996Y-107266664D01*
X113030000Y-107315000D01*
X116078000Y-107315000D01*
X116321004Y-107266664D01*
X116527013Y-107129013D01*
X116664664Y-106923004D01*
X116713000Y-106680000D01*
X116713000Y-103378000D01*
X116672689Y-103155358D01*
X116542220Y-102944728D01*
X115494574Y-101822250D01*
X131143000Y-101822250D01*
X131143000Y-102225786D01*
X131201004Y-102365820D01*
X131308181Y-102472996D01*
X131448215Y-102531000D01*
X131751750Y-102531000D01*
X131847000Y-102435750D01*
X131847000Y-101727000D01*
X132101000Y-101727000D01*
X132101000Y-102435750D01*
X132196250Y-102531000D01*
X132499785Y-102531000D01*
X132639819Y-102472996D01*
X132746996Y-102365820D01*
X132805000Y-102225786D01*
X132805000Y-101822250D01*
X132709750Y-101727000D01*
X132101000Y-101727000D01*
X131847000Y-101727000D01*
X131238250Y-101727000D01*
X131143000Y-101822250D01*
X115494574Y-101822250D01*
X114703074Y-100974214D01*
X131143000Y-100974214D01*
X131143000Y-101377750D01*
X131238250Y-101473000D01*
X131847000Y-101473000D01*
X131847000Y-100764250D01*
X132101000Y-100764250D01*
X132101000Y-101473000D01*
X132709750Y-101473000D01*
X132805000Y-101377750D01*
X132805000Y-100974214D01*
X132746996Y-100834180D01*
X132639819Y-100727004D01*
X132499785Y-100669000D01*
X132196250Y-100669000D01*
X132101000Y-100764250D01*
X131847000Y-100764250D01*
X131751750Y-100669000D01*
X131448215Y-100669000D01*
X131308181Y-100727004D01*
X131201004Y-100834180D01*
X131143000Y-100974214D01*
X114703074Y-100974214D01*
X113909741Y-100124214D01*
X134043000Y-100124214D01*
X134043000Y-100527750D01*
X134138250Y-100623000D01*
X134747000Y-100623000D01*
X134747000Y-99914250D01*
X135001000Y-99914250D01*
X135001000Y-100623000D01*
X135609750Y-100623000D01*
X135705000Y-100527750D01*
X135705000Y-100124214D01*
X135646996Y-99984180D01*
X135539819Y-99877004D01*
X135399785Y-99819000D01*
X135096250Y-99819000D01*
X135001000Y-99914250D01*
X134747000Y-99914250D01*
X134651750Y-99819000D01*
X134348215Y-99819000D01*
X134208181Y-99877004D01*
X134101004Y-99984180D01*
X134043000Y-100124214D01*
X113909741Y-100124214D01*
X113286074Y-99456000D01*
X137873000Y-99456000D01*
X137873000Y-99598536D01*
X136435000Y-99598536D01*
X136286341Y-99628106D01*
X136160314Y-99712314D01*
X136076106Y-99838341D01*
X136046536Y-99987000D01*
X136046536Y-101137000D01*
X136076106Y-101285659D01*
X136160314Y-101411686D01*
X136235615Y-101462000D01*
X136160314Y-101512314D01*
X136081011Y-101631000D01*
X135602485Y-101631000D01*
X135598686Y-101625314D01*
X135562008Y-101600807D01*
X135646996Y-101515820D01*
X135705000Y-101375786D01*
X135705000Y-100972250D01*
X135609750Y-100877000D01*
X135001000Y-100877000D01*
X135001000Y-100897000D01*
X134747000Y-100897000D01*
X134747000Y-100877000D01*
X134138250Y-100877000D01*
X134043000Y-100972250D01*
X134043000Y-101375786D01*
X134101004Y-101515820D01*
X134185992Y-101600807D01*
X134149314Y-101625314D01*
X134065106Y-101751341D01*
X134035536Y-101900000D01*
X134035536Y-103000000D01*
X134065106Y-103148659D01*
X134149314Y-103274686D01*
X134275341Y-103358894D01*
X134424000Y-103388464D01*
X135324000Y-103388464D01*
X135472659Y-103358894D01*
X135598686Y-103274686D01*
X135682894Y-103148659D01*
X135693965Y-103093000D01*
X136081011Y-103093000D01*
X136160314Y-103211686D01*
X136286341Y-103295894D01*
X136435000Y-103325464D01*
X137873000Y-103325464D01*
X137873000Y-104552663D01*
X137845223Y-104571223D01*
X137767000Y-104688292D01*
X137767000Y-104634214D01*
X137708996Y-104494180D01*
X137601819Y-104387004D01*
X137461785Y-104329000D01*
X135858250Y-104329000D01*
X135763000Y-104424250D01*
X135763000Y-105283000D01*
X135783000Y-105283000D01*
X135783000Y-105537000D01*
X135763000Y-105537000D01*
X135763000Y-106395750D01*
X135858250Y-106491000D01*
X137461785Y-106491000D01*
X137601819Y-106432996D01*
X137603000Y-106431815D01*
X137603000Y-107099446D01*
X137325446Y-107377000D01*
X133377000Y-107377000D01*
X133377000Y-105632250D01*
X133505000Y-105632250D01*
X133505000Y-106185786D01*
X133563004Y-106325820D01*
X133670181Y-106432996D01*
X133810215Y-106491000D01*
X135413750Y-106491000D01*
X135509000Y-106395750D01*
X135509000Y-105537000D01*
X133600250Y-105537000D01*
X133505000Y-105632250D01*
X133377000Y-105632250D01*
X133377000Y-105000000D01*
X133362451Y-104940976D01*
X133331303Y-104902436D01*
X133009437Y-104634214D01*
X133505000Y-104634214D01*
X133505000Y-105187750D01*
X133600250Y-105283000D01*
X135509000Y-105283000D01*
X135509000Y-104424250D01*
X135413750Y-104329000D01*
X133810215Y-104329000D01*
X133670181Y-104387004D01*
X133563004Y-104494180D01*
X133505000Y-104634214D01*
X133009437Y-104634214D01*
X131831303Y-103652436D01*
X131798601Y-103632667D01*
X131750000Y-103623000D01*
X128571355Y-103623000D01*
X128561698Y-103619000D01*
X128012302Y-103619000D01*
X128002645Y-103623000D01*
X128000000Y-103623000D01*
X127951399Y-103632667D01*
X127910197Y-103660197D01*
X127909184Y-103661713D01*
X127504727Y-103829245D01*
X127116245Y-104217727D01*
X126906000Y-104725302D01*
X126906000Y-105274698D01*
X127116245Y-105782273D01*
X127504727Y-106170755D01*
X127909184Y-106338287D01*
X127910197Y-106339803D01*
X127951399Y-106367333D01*
X128000000Y-106377000D01*
X128002645Y-106377000D01*
X128012302Y-106381000D01*
X128561698Y-106381000D01*
X128571355Y-106377000D01*
X129873000Y-106377000D01*
X129873000Y-108000000D01*
X129882667Y-108048601D01*
X129910197Y-108089803D01*
X129951399Y-108117333D01*
X129998380Y-108126678D01*
X129983000Y-108204000D01*
X129983000Y-111252000D01*
X130045952Y-111568479D01*
X130225223Y-111836777D01*
X130493521Y-112016048D01*
X130810000Y-112079000D01*
X137414000Y-112079000D01*
X137812919Y-111976426D01*
X138059779Y-111768623D01*
X138219493Y-111568980D01*
X139018511Y-111568980D01*
X139142755Y-111868964D01*
X139459944Y-112229652D01*
X139891018Y-112441501D01*
X140081000Y-112381193D01*
X140081000Y-111379000D01*
X140335000Y-111379000D01*
X140335000Y-112381193D01*
X140524982Y-112441501D01*
X140956056Y-112229652D01*
X141273245Y-111868964D01*
X141397489Y-111568980D01*
X141336627Y-111379000D01*
X140335000Y-111379000D01*
X140081000Y-111379000D01*
X139079373Y-111379000D01*
X139018511Y-111568980D01*
X138219493Y-111568980D01*
X138827477Y-110809000D01*
X139070705Y-110809000D01*
X139018511Y-110935020D01*
X139079373Y-111125000D01*
X140081000Y-111125000D01*
X140081000Y-111105000D01*
X140335000Y-111105000D01*
X140335000Y-111125000D01*
X141336627Y-111125000D01*
X141397489Y-110935020D01*
X141345295Y-110809000D01*
X141986000Y-110809000D01*
X142302479Y-110746048D01*
X142544001Y-110584668D01*
X142544001Y-121544000D01*
X97456000Y-121544000D01*
X97456000Y-110490000D01*
X98679000Y-110490000D01*
X98679000Y-114046000D01*
X98727336Y-114289004D01*
X98819542Y-114427000D01*
X98727336Y-114564996D01*
X98679000Y-114808000D01*
X98679000Y-118872000D01*
X98727336Y-119115004D01*
X98864987Y-119321013D01*
X99070996Y-119458664D01*
X99314000Y-119507000D01*
X102870000Y-119507000D01*
X103113004Y-119458664D01*
X103251000Y-119366458D01*
X103388996Y-119458664D01*
X103632000Y-119507000D01*
X116078000Y-119507000D01*
X116321004Y-119458664D01*
X116527013Y-119321013D01*
X116664664Y-119115004D01*
X116713000Y-118872000D01*
X116713000Y-117263742D01*
X127452863Y-117263742D01*
X127565485Y-117459146D01*
X128083126Y-117643217D01*
X128631806Y-117615184D01*
X129008515Y-117459146D01*
X129121137Y-117263742D01*
X128287000Y-116429605D01*
X127452863Y-117263742D01*
X116713000Y-117263742D01*
X116713000Y-116046126D01*
X126893783Y-116046126D01*
X126921816Y-116594806D01*
X127077854Y-116971515D01*
X127273258Y-117084137D01*
X128107395Y-116250000D01*
X128466605Y-116250000D01*
X129300742Y-117084137D01*
X129496146Y-116971515D01*
X129680217Y-116453874D01*
X129652184Y-115905194D01*
X129496146Y-115528485D01*
X129300742Y-115415863D01*
X128466605Y-116250000D01*
X128107395Y-116250000D01*
X127273258Y-115415863D01*
X127077854Y-115528485D01*
X126893783Y-116046126D01*
X116713000Y-116046126D01*
X116713000Y-115236258D01*
X127452863Y-115236258D01*
X128287000Y-116070395D01*
X129121137Y-115236258D01*
X129008515Y-115040854D01*
X128490874Y-114856783D01*
X127942194Y-114884816D01*
X127565485Y-115040854D01*
X127452863Y-115236258D01*
X116713000Y-115236258D01*
X116713000Y-114300000D01*
X116675005Y-114108980D01*
X139018511Y-114108980D01*
X139142755Y-114408964D01*
X139459944Y-114769652D01*
X139891018Y-114981501D01*
X140081000Y-114921193D01*
X140081000Y-113919000D01*
X140335000Y-113919000D01*
X140335000Y-114921193D01*
X140524982Y-114981501D01*
X140956056Y-114769652D01*
X141273245Y-114408964D01*
X141397489Y-114108980D01*
X141336627Y-113919000D01*
X140335000Y-113919000D01*
X140081000Y-113919000D01*
X139079373Y-113919000D01*
X139018511Y-114108980D01*
X116675005Y-114108980D01*
X116664664Y-114056996D01*
X116527013Y-113850987D01*
X116321004Y-113713336D01*
X116078000Y-113665000D01*
X115325028Y-113665000D01*
X115707755Y-113282273D01*
X115918000Y-112774698D01*
X115918000Y-112225302D01*
X126906000Y-112225302D01*
X126906000Y-112774698D01*
X127116245Y-113282273D01*
X127504727Y-113670755D01*
X128012302Y-113881000D01*
X128561698Y-113881000D01*
X129069273Y-113670755D01*
X129265008Y-113475020D01*
X139018511Y-113475020D01*
X139079373Y-113665000D01*
X140081000Y-113665000D01*
X140081000Y-112662807D01*
X140335000Y-112662807D01*
X140335000Y-113665000D01*
X141336627Y-113665000D01*
X141397489Y-113475020D01*
X141273245Y-113175036D01*
X140956056Y-112814348D01*
X140524982Y-112602499D01*
X140335000Y-112662807D01*
X140081000Y-112662807D01*
X139891018Y-112602499D01*
X139459944Y-112814348D01*
X139142755Y-113175036D01*
X139018511Y-113475020D01*
X129265008Y-113475020D01*
X129457755Y-113282273D01*
X129668000Y-112774698D01*
X129668000Y-112225302D01*
X129457755Y-111717727D01*
X129069273Y-111329245D01*
X128561698Y-111119000D01*
X128012302Y-111119000D01*
X127504727Y-111329245D01*
X127116245Y-111717727D01*
X126906000Y-112225302D01*
X115918000Y-112225302D01*
X115707755Y-111717727D01*
X115319273Y-111329245D01*
X114811698Y-111119000D01*
X114262302Y-111119000D01*
X113754727Y-111329245D01*
X113411000Y-111672972D01*
X113411000Y-109728000D01*
X113373514Y-109539542D01*
X113754727Y-109920755D01*
X114262302Y-110131000D01*
X114811698Y-110131000D01*
X115319273Y-109920755D01*
X115707755Y-109532273D01*
X115918000Y-109024698D01*
X115918000Y-108475302D01*
X126906000Y-108475302D01*
X126906000Y-109024698D01*
X127116245Y-109532273D01*
X127504727Y-109920755D01*
X128012302Y-110131000D01*
X128561698Y-110131000D01*
X129069273Y-109920755D01*
X129457755Y-109532273D01*
X129668000Y-109024698D01*
X129668000Y-108475302D01*
X129457755Y-107967727D01*
X129069273Y-107579245D01*
X128561698Y-107369000D01*
X128012302Y-107369000D01*
X127504727Y-107579245D01*
X127116245Y-107967727D01*
X126906000Y-108475302D01*
X115918000Y-108475302D01*
X115707755Y-107967727D01*
X115319273Y-107579245D01*
X114811698Y-107369000D01*
X114262302Y-107369000D01*
X113754727Y-107579245D01*
X113366245Y-107967727D01*
X113156000Y-108475302D01*
X113156000Y-109024698D01*
X113320563Y-109421988D01*
X113225013Y-109278987D01*
X113019004Y-109141336D01*
X112776000Y-109093000D01*
X108712000Y-109093000D01*
X108623000Y-109110703D01*
X108623000Y-107670250D01*
X108527750Y-107575000D01*
X107569000Y-107575000D01*
X107569000Y-109483750D01*
X107664250Y-109579000D01*
X107962974Y-109579000D01*
X107686974Y-109855000D01*
X100487603Y-109855000D01*
X100824056Y-109689652D01*
X101141245Y-109328964D01*
X101265489Y-109028980D01*
X101204627Y-108839000D01*
X100203000Y-108839000D01*
X100203000Y-108859000D01*
X99949000Y-108859000D01*
X99949000Y-108839000D01*
X98947373Y-108839000D01*
X98886511Y-109028980D01*
X99010755Y-109328964D01*
X99327944Y-109689652D01*
X99664397Y-109855000D01*
X99314000Y-109855000D01*
X99070996Y-109903336D01*
X98864987Y-110040987D01*
X98727336Y-110246996D01*
X98679000Y-110490000D01*
X97456000Y-110490000D01*
X97456000Y-108395020D01*
X98886511Y-108395020D01*
X98947373Y-108585000D01*
X99949000Y-108585000D01*
X99949000Y-107582807D01*
X100203000Y-107582807D01*
X100203000Y-108585000D01*
X101204627Y-108585000D01*
X101265489Y-108395020D01*
X101141245Y-108095036D01*
X100824056Y-107734348D01*
X100693629Y-107670250D01*
X106261000Y-107670250D01*
X106261000Y-109273786D01*
X106319004Y-109413820D01*
X106426181Y-109520996D01*
X106566215Y-109579000D01*
X107219750Y-109579000D01*
X107315000Y-109483750D01*
X107315000Y-107575000D01*
X106356250Y-107575000D01*
X106261000Y-107670250D01*
X100693629Y-107670250D01*
X100392982Y-107522499D01*
X100203000Y-107582807D01*
X99949000Y-107582807D01*
X99759018Y-107522499D01*
X99327944Y-107734348D01*
X99010755Y-108095036D01*
X98886511Y-108395020D01*
X97456000Y-108395020D01*
X97456000Y-106488980D01*
X98886511Y-106488980D01*
X99010755Y-106788964D01*
X99327944Y-107149652D01*
X99759018Y-107361501D01*
X99949000Y-107301193D01*
X99949000Y-106299000D01*
X100203000Y-106299000D01*
X100203000Y-107301193D01*
X100392982Y-107361501D01*
X100824056Y-107149652D01*
X101141245Y-106788964D01*
X101265489Y-106488980D01*
X101204627Y-106299000D01*
X100203000Y-106299000D01*
X99949000Y-106299000D01*
X98947373Y-106299000D01*
X98886511Y-106488980D01*
X97456000Y-106488980D01*
X97456000Y-99456000D01*
X97939278Y-99456000D01*
X97917000Y-99568000D01*
X97917000Y-99568000D01*
G37*
X97917000Y-99568000D02*
X97917000Y-104902000D01*
X97965336Y-105145004D01*
X98102987Y-105351013D01*
X98308996Y-105488664D01*
X98552000Y-105537000D01*
X99026616Y-105537000D01*
X99010755Y-105555036D01*
X98886511Y-105855020D01*
X98947373Y-106045000D01*
X99949000Y-106045000D01*
X99949000Y-106025000D01*
X100203000Y-106025000D01*
X100203000Y-106045000D01*
X101204627Y-106045000D01*
X101265489Y-105855020D01*
X101169069Y-105622214D01*
X106261000Y-105622214D01*
X106261000Y-107225750D01*
X106356250Y-107321000D01*
X107315000Y-107321000D01*
X107315000Y-105412250D01*
X107569000Y-105412250D01*
X107569000Y-107321000D01*
X108527750Y-107321000D01*
X108623000Y-107225750D01*
X108623000Y-105622214D01*
X108564996Y-105482180D01*
X108457819Y-105375004D01*
X108317785Y-105317000D01*
X107664250Y-105317000D01*
X107569000Y-105412250D01*
X107315000Y-105412250D01*
X107219750Y-105317000D01*
X106566215Y-105317000D01*
X106426181Y-105375004D01*
X106319004Y-105482180D01*
X106261000Y-105622214D01*
X101169069Y-105622214D01*
X101141245Y-105555036D01*
X101125384Y-105537000D01*
X101346000Y-105537000D01*
X101500010Y-105518040D01*
X101724035Y-105412210D01*
X101890508Y-105228705D01*
X102467531Y-104267000D01*
X110426500Y-104267000D01*
X112522000Y-107061000D01*
X112786996Y-107266664D01*
X113030000Y-107315000D01*
X116078000Y-107315000D01*
X116321004Y-107266664D01*
X116527013Y-107129013D01*
X116664664Y-106923004D01*
X116713000Y-106680000D01*
X116713000Y-103378000D01*
X116672689Y-103155358D01*
X116542220Y-102944728D01*
X115494574Y-101822250D01*
X131143000Y-101822250D01*
X131143000Y-102225786D01*
X131201004Y-102365820D01*
X131308181Y-102472996D01*
X131448215Y-102531000D01*
X131751750Y-102531000D01*
X131847000Y-102435750D01*
X131847000Y-101727000D01*
X132101000Y-101727000D01*
X132101000Y-102435750D01*
X132196250Y-102531000D01*
X132499785Y-102531000D01*
X132639819Y-102472996D01*
X132746996Y-102365820D01*
X132805000Y-102225786D01*
X132805000Y-101822250D01*
X132709750Y-101727000D01*
X132101000Y-101727000D01*
X131847000Y-101727000D01*
X131238250Y-101727000D01*
X131143000Y-101822250D01*
X115494574Y-101822250D01*
X114703074Y-100974214D01*
X131143000Y-100974214D01*
X131143000Y-101377750D01*
X131238250Y-101473000D01*
X131847000Y-101473000D01*
X131847000Y-100764250D01*
X132101000Y-100764250D01*
X132101000Y-101473000D01*
X132709750Y-101473000D01*
X132805000Y-101377750D01*
X132805000Y-100974214D01*
X132746996Y-100834180D01*
X132639819Y-100727004D01*
X132499785Y-100669000D01*
X132196250Y-100669000D01*
X132101000Y-100764250D01*
X131847000Y-100764250D01*
X131751750Y-100669000D01*
X131448215Y-100669000D01*
X131308181Y-100727004D01*
X131201004Y-100834180D01*
X131143000Y-100974214D01*
X114703074Y-100974214D01*
X113909741Y-100124214D01*
X134043000Y-100124214D01*
X134043000Y-100527750D01*
X134138250Y-100623000D01*
X134747000Y-100623000D01*
X134747000Y-99914250D01*
X135001000Y-99914250D01*
X135001000Y-100623000D01*
X135609750Y-100623000D01*
X135705000Y-100527750D01*
X135705000Y-100124214D01*
X135646996Y-99984180D01*
X135539819Y-99877004D01*
X135399785Y-99819000D01*
X135096250Y-99819000D01*
X135001000Y-99914250D01*
X134747000Y-99914250D01*
X134651750Y-99819000D01*
X134348215Y-99819000D01*
X134208181Y-99877004D01*
X134101004Y-99984180D01*
X134043000Y-100124214D01*
X113909741Y-100124214D01*
X113286074Y-99456000D01*
X137873000Y-99456000D01*
X137873000Y-99598536D01*
X136435000Y-99598536D01*
X136286341Y-99628106D01*
X136160314Y-99712314D01*
X136076106Y-99838341D01*
X136046536Y-99987000D01*
X136046536Y-101137000D01*
X136076106Y-101285659D01*
X136160314Y-101411686D01*
X136235615Y-101462000D01*
X136160314Y-101512314D01*
X136081011Y-101631000D01*
X135602485Y-101631000D01*
X135598686Y-101625314D01*
X135562008Y-101600807D01*
X135646996Y-101515820D01*
X135705000Y-101375786D01*
X135705000Y-100972250D01*
X135609750Y-100877000D01*
X135001000Y-100877000D01*
X135001000Y-100897000D01*
X134747000Y-100897000D01*
X134747000Y-100877000D01*
X134138250Y-100877000D01*
X134043000Y-100972250D01*
X134043000Y-101375786D01*
X134101004Y-101515820D01*
X134185992Y-101600807D01*
X134149314Y-101625314D01*
X134065106Y-101751341D01*
X134035536Y-101900000D01*
X134035536Y-103000000D01*
X134065106Y-103148659D01*
X134149314Y-103274686D01*
X134275341Y-103358894D01*
X134424000Y-103388464D01*
X135324000Y-103388464D01*
X135472659Y-103358894D01*
X135598686Y-103274686D01*
X135682894Y-103148659D01*
X135693965Y-103093000D01*
X136081011Y-103093000D01*
X136160314Y-103211686D01*
X136286341Y-103295894D01*
X136435000Y-103325464D01*
X137873000Y-103325464D01*
X137873000Y-104552663D01*
X137845223Y-104571223D01*
X137767000Y-104688292D01*
X137767000Y-104634214D01*
X137708996Y-104494180D01*
X137601819Y-104387004D01*
X137461785Y-104329000D01*
X135858250Y-104329000D01*
X135763000Y-104424250D01*
X135763000Y-105283000D01*
X135783000Y-105283000D01*
X135783000Y-105537000D01*
X135763000Y-105537000D01*
X135763000Y-106395750D01*
X135858250Y-106491000D01*
X137461785Y-106491000D01*
X137601819Y-106432996D01*
X137603000Y-106431815D01*
X137603000Y-107099446D01*
X137325446Y-107377000D01*
X133377000Y-107377000D01*
X133377000Y-105632250D01*
X133505000Y-105632250D01*
X133505000Y-106185786D01*
X133563004Y-106325820D01*
X133670181Y-106432996D01*
X133810215Y-106491000D01*
X135413750Y-106491000D01*
X135509000Y-106395750D01*
X135509000Y-105537000D01*
X133600250Y-105537000D01*
X133505000Y-105632250D01*
X133377000Y-105632250D01*
X133377000Y-105000000D01*
X133362451Y-104940976D01*
X133331303Y-104902436D01*
X133009437Y-104634214D01*
X133505000Y-104634214D01*
X133505000Y-105187750D01*
X133600250Y-105283000D01*
X135509000Y-105283000D01*
X135509000Y-104424250D01*
X135413750Y-104329000D01*
X133810215Y-104329000D01*
X133670181Y-104387004D01*
X133563004Y-104494180D01*
X133505000Y-104634214D01*
X133009437Y-104634214D01*
X131831303Y-103652436D01*
X131798601Y-103632667D01*
X131750000Y-103623000D01*
X128571355Y-103623000D01*
X128561698Y-103619000D01*
X128012302Y-103619000D01*
X128002645Y-103623000D01*
X128000000Y-103623000D01*
X127951399Y-103632667D01*
X127910197Y-103660197D01*
X127909184Y-103661713D01*
X127504727Y-103829245D01*
X127116245Y-104217727D01*
X126906000Y-104725302D01*
X126906000Y-105274698D01*
X127116245Y-105782273D01*
X127504727Y-106170755D01*
X127909184Y-106338287D01*
X127910197Y-106339803D01*
X127951399Y-106367333D01*
X128000000Y-106377000D01*
X128002645Y-106377000D01*
X128012302Y-106381000D01*
X128561698Y-106381000D01*
X128571355Y-106377000D01*
X129873000Y-106377000D01*
X129873000Y-108000000D01*
X129882667Y-108048601D01*
X129910197Y-108089803D01*
X129951399Y-108117333D01*
X129998380Y-108126678D01*
X129983000Y-108204000D01*
X129983000Y-111252000D01*
X130045952Y-111568479D01*
X130225223Y-111836777D01*
X130493521Y-112016048D01*
X130810000Y-112079000D01*
X137414000Y-112079000D01*
X137812919Y-111976426D01*
X138059779Y-111768623D01*
X138219493Y-111568980D01*
X139018511Y-111568980D01*
X139142755Y-111868964D01*
X139459944Y-112229652D01*
X139891018Y-112441501D01*
X140081000Y-112381193D01*
X140081000Y-111379000D01*
X140335000Y-111379000D01*
X140335000Y-112381193D01*
X140524982Y-112441501D01*
X140956056Y-112229652D01*
X141273245Y-111868964D01*
X141397489Y-111568980D01*
X141336627Y-111379000D01*
X140335000Y-111379000D01*
X140081000Y-111379000D01*
X139079373Y-111379000D01*
X139018511Y-111568980D01*
X138219493Y-111568980D01*
X138827477Y-110809000D01*
X139070705Y-110809000D01*
X139018511Y-110935020D01*
X139079373Y-111125000D01*
X140081000Y-111125000D01*
X140081000Y-111105000D01*
X140335000Y-111105000D01*
X140335000Y-111125000D01*
X141336627Y-111125000D01*
X141397489Y-110935020D01*
X141345295Y-110809000D01*
X141986000Y-110809000D01*
X142302479Y-110746048D01*
X142544001Y-110584668D01*
X142544001Y-121544000D01*
X97456000Y-121544000D01*
X97456000Y-110490000D01*
X98679000Y-110490000D01*
X98679000Y-114046000D01*
X98727336Y-114289004D01*
X98819542Y-114427000D01*
X98727336Y-114564996D01*
X98679000Y-114808000D01*
X98679000Y-118872000D01*
X98727336Y-119115004D01*
X98864987Y-119321013D01*
X99070996Y-119458664D01*
X99314000Y-119507000D01*
X102870000Y-119507000D01*
X103113004Y-119458664D01*
X103251000Y-119366458D01*
X103388996Y-119458664D01*
X103632000Y-119507000D01*
X116078000Y-119507000D01*
X116321004Y-119458664D01*
X116527013Y-119321013D01*
X116664664Y-119115004D01*
X116713000Y-118872000D01*
X116713000Y-117263742D01*
X127452863Y-117263742D01*
X127565485Y-117459146D01*
X128083126Y-117643217D01*
X128631806Y-117615184D01*
X129008515Y-117459146D01*
X129121137Y-117263742D01*
X128287000Y-116429605D01*
X127452863Y-117263742D01*
X116713000Y-117263742D01*
X116713000Y-116046126D01*
X126893783Y-116046126D01*
X126921816Y-116594806D01*
X127077854Y-116971515D01*
X127273258Y-117084137D01*
X128107395Y-116250000D01*
X128466605Y-116250000D01*
X129300742Y-117084137D01*
X129496146Y-116971515D01*
X129680217Y-116453874D01*
X129652184Y-115905194D01*
X129496146Y-115528485D01*
X129300742Y-115415863D01*
X128466605Y-116250000D01*
X128107395Y-116250000D01*
X127273258Y-115415863D01*
X127077854Y-115528485D01*
X126893783Y-116046126D01*
X116713000Y-116046126D01*
X116713000Y-115236258D01*
X127452863Y-115236258D01*
X128287000Y-116070395D01*
X129121137Y-115236258D01*
X129008515Y-115040854D01*
X128490874Y-114856783D01*
X127942194Y-114884816D01*
X127565485Y-115040854D01*
X127452863Y-115236258D01*
X116713000Y-115236258D01*
X116713000Y-114300000D01*
X116675005Y-114108980D01*
X139018511Y-114108980D01*
X139142755Y-114408964D01*
X139459944Y-114769652D01*
X139891018Y-114981501D01*
X140081000Y-114921193D01*
X140081000Y-113919000D01*
X140335000Y-113919000D01*
X140335000Y-114921193D01*
X140524982Y-114981501D01*
X140956056Y-114769652D01*
X141273245Y-114408964D01*
X141397489Y-114108980D01*
X141336627Y-113919000D01*
X140335000Y-113919000D01*
X140081000Y-113919000D01*
X139079373Y-113919000D01*
X139018511Y-114108980D01*
X116675005Y-114108980D01*
X116664664Y-114056996D01*
X116527013Y-113850987D01*
X116321004Y-113713336D01*
X116078000Y-113665000D01*
X115325028Y-113665000D01*
X115707755Y-113282273D01*
X115918000Y-112774698D01*
X115918000Y-112225302D01*
X126906000Y-112225302D01*
X126906000Y-112774698D01*
X127116245Y-113282273D01*
X127504727Y-113670755D01*
X128012302Y-113881000D01*
X128561698Y-113881000D01*
X129069273Y-113670755D01*
X129265008Y-113475020D01*
X139018511Y-113475020D01*
X139079373Y-113665000D01*
X140081000Y-113665000D01*
X140081000Y-112662807D01*
X140335000Y-112662807D01*
X140335000Y-113665000D01*
X141336627Y-113665000D01*
X141397489Y-113475020D01*
X141273245Y-113175036D01*
X140956056Y-112814348D01*
X140524982Y-112602499D01*
X140335000Y-112662807D01*
X140081000Y-112662807D01*
X139891018Y-112602499D01*
X139459944Y-112814348D01*
X139142755Y-113175036D01*
X139018511Y-113475020D01*
X129265008Y-113475020D01*
X129457755Y-113282273D01*
X129668000Y-112774698D01*
X129668000Y-112225302D01*
X129457755Y-111717727D01*
X129069273Y-111329245D01*
X128561698Y-111119000D01*
X128012302Y-111119000D01*
X127504727Y-111329245D01*
X127116245Y-111717727D01*
X126906000Y-112225302D01*
X115918000Y-112225302D01*
X115707755Y-111717727D01*
X115319273Y-111329245D01*
X114811698Y-111119000D01*
X114262302Y-111119000D01*
X113754727Y-111329245D01*
X113411000Y-111672972D01*
X113411000Y-109728000D01*
X113373514Y-109539542D01*
X113754727Y-109920755D01*
X114262302Y-110131000D01*
X114811698Y-110131000D01*
X115319273Y-109920755D01*
X115707755Y-109532273D01*
X115918000Y-109024698D01*
X115918000Y-108475302D01*
X126906000Y-108475302D01*
X126906000Y-109024698D01*
X127116245Y-109532273D01*
X127504727Y-109920755D01*
X128012302Y-110131000D01*
X128561698Y-110131000D01*
X129069273Y-109920755D01*
X129457755Y-109532273D01*
X129668000Y-109024698D01*
X129668000Y-108475302D01*
X129457755Y-107967727D01*
X129069273Y-107579245D01*
X128561698Y-107369000D01*
X128012302Y-107369000D01*
X127504727Y-107579245D01*
X127116245Y-107967727D01*
X126906000Y-108475302D01*
X115918000Y-108475302D01*
X115707755Y-107967727D01*
X115319273Y-107579245D01*
X114811698Y-107369000D01*
X114262302Y-107369000D01*
X113754727Y-107579245D01*
X113366245Y-107967727D01*
X113156000Y-108475302D01*
X113156000Y-109024698D01*
X113320563Y-109421988D01*
X113225013Y-109278987D01*
X113019004Y-109141336D01*
X112776000Y-109093000D01*
X108712000Y-109093000D01*
X108623000Y-109110703D01*
X108623000Y-107670250D01*
X108527750Y-107575000D01*
X107569000Y-107575000D01*
X107569000Y-109483750D01*
X107664250Y-109579000D01*
X107962974Y-109579000D01*
X107686974Y-109855000D01*
X100487603Y-109855000D01*
X100824056Y-109689652D01*
X101141245Y-109328964D01*
X101265489Y-109028980D01*
X101204627Y-108839000D01*
X100203000Y-108839000D01*
X100203000Y-108859000D01*
X99949000Y-108859000D01*
X99949000Y-108839000D01*
X98947373Y-108839000D01*
X98886511Y-109028980D01*
X99010755Y-109328964D01*
X99327944Y-109689652D01*
X99664397Y-109855000D01*
X99314000Y-109855000D01*
X99070996Y-109903336D01*
X98864987Y-110040987D01*
X98727336Y-110246996D01*
X98679000Y-110490000D01*
X97456000Y-110490000D01*
X97456000Y-108395020D01*
X98886511Y-108395020D01*
X98947373Y-108585000D01*
X99949000Y-108585000D01*
X99949000Y-107582807D01*
X100203000Y-107582807D01*
X100203000Y-108585000D01*
X101204627Y-108585000D01*
X101265489Y-108395020D01*
X101141245Y-108095036D01*
X100824056Y-107734348D01*
X100693629Y-107670250D01*
X106261000Y-107670250D01*
X106261000Y-109273786D01*
X106319004Y-109413820D01*
X106426181Y-109520996D01*
X106566215Y-109579000D01*
X107219750Y-109579000D01*
X107315000Y-109483750D01*
X107315000Y-107575000D01*
X106356250Y-107575000D01*
X106261000Y-107670250D01*
X100693629Y-107670250D01*
X100392982Y-107522499D01*
X100203000Y-107582807D01*
X99949000Y-107582807D01*
X99759018Y-107522499D01*
X99327944Y-107734348D01*
X99010755Y-108095036D01*
X98886511Y-108395020D01*
X97456000Y-108395020D01*
X97456000Y-106488980D01*
X98886511Y-106488980D01*
X99010755Y-106788964D01*
X99327944Y-107149652D01*
X99759018Y-107361501D01*
X99949000Y-107301193D01*
X99949000Y-106299000D01*
X100203000Y-106299000D01*
X100203000Y-107301193D01*
X100392982Y-107361501D01*
X100824056Y-107149652D01*
X101141245Y-106788964D01*
X101265489Y-106488980D01*
X101204627Y-106299000D01*
X100203000Y-106299000D01*
X99949000Y-106299000D01*
X98947373Y-106299000D01*
X98886511Y-106488980D01*
X97456000Y-106488980D01*
X97456000Y-99456000D01*
X97939278Y-99456000D01*
X97917000Y-99568000D01*
G04 #@! TD*
M02*
